<svg version="1.1" viewBox="0.0 0.0 960.0 720.0" fill="white" stroke="none" stroke-linecap="square" stroke-miterlimit="10" xmlns:xlink="http://www.w3.org/1999/xlink" xmlns="http://www.w3.org/2000/svg"><clipPath id="p.0"><path d="m0 0l960.0 0l0 720.0l-960.0 0l0 -720.0z" clip-rule="nonzero"/></clipPath><g clip-path="url(#p.0)"><path fill="#000000" fill-opacity="0.0" d="m0 0l960.0 0l0 720.0l-960.0 0z" fill-rule="evenodd"/><path fill="#000000" fill-opacity="0.0" d="m156.03702 294.9475c-11.103073 0 -21.280884 2.5372925 -30.533432 7.6118774c-9.233482 5.055542 -16.358902 12.467102 -21.376259 22.234772c-4.998291 9.748566 -7.497429 21.175934 -7.497429 34.282135c0 12.018768 2.2129745 23.264923 6.6389465 33.738434c4.44503 10.473511 10.912277 18.47647 19.401749 24.008942c8.508514 5.5133667 19.54483 8.27005 33.10887 8.27005c13.106201 0 24.19017 -3.5865479 33.25197 -10.759674c9.080841 -7.192169 15.366867 -17.627533 18.858032 -31.30606l-16.654587 -4.2065735c-2.2892914 10.587982 -6.667572 18.5719 -13.134811 23.951721c-6.4672546 5.3798523 -14.365311 8.069763 -23.694168 8.069763c-7.6691284 0 -14.794556 -1.9745178 -21.376266 -5.9235535c-6.581711 -3.9490356 -11.436928 -9.910736 -14.565613 -17.88507c-3.1096344 -7.993469 -4.6644363 -17.3414 -4.6644363 -28.043823c0 -8.298706 1.3163452 -16.349365 3.949028 -24.152039c2.6326904 -7.821747 7.1921844 -14.050537 13.678513 -18.68634c6.5054016 -4.635803 14.594238 -6.9537354 24.266495 -6.9537354c8.413147 0 15.395493 2.0889893 20.947021 6.2669373c5.551529 4.1779785 9.786713 10.84552 12.705566 20.002686l16.397049 -3.8631592c-3.376709 -11.618164 -9.357483 -20.632263 -17.942322 -27.042267c-8.584839 -6.4100037 -19.172821 -9.615021 -31.763916 -9.615021z" fill-rule="evenodd"/><path fill="#000000" fill-opacity="0.0" d="m228.92233 297.09372l0 125.85379l16.654602 0l0 -59.32126l65.416504 0l0 59.32126l16.654602 0l0 -125.85379l-16.654602 0l0 51.680756l-65.416504 0l0 -51.680756z" fill-rule="evenodd"/><path fill="#000000" fill-opacity="0.0" d="m355.72046 297.09372l0 125.85379l93.91818 0l0 -14.851776l-77.26358 0l0 -42.83835l69.62308 0l0 -14.76593l-69.62308 0l0 -38.54596l74.34476 0l0 -14.851776z" fill-rule="evenodd"/><path fill="#000000" fill-opacity="0.0" d="m472.47433 297.09372l0 125.85379l15.967804 0l0 -98.8974l66.10327 98.8974l17.083862 0l0 -125.85379l-15.967773 0l0 98.811554l-66.10333 -98.811554z" fill-rule="evenodd"/><path fill="#000000" fill-opacity="0.0" d="m599.44415 297.09372l0 125.85379l15.967834 0l0 -98.8974l66.10327 98.8974l17.083862 0l0 -125.85379l-15.967834 0l0 98.811554l-66.10327 -98.811554z" fill-rule="evenodd"/><path fill="#000000" fill-opacity="0.0" d="m769.68164 310.31436c1.9458618 6.810669 4.921936 15.509979 8.928223 26.09793l13.134827 34.85446l-42.666687 0l13.821594 -36.914825c2.9188232 -7.9552917 5.1795044 -15.967804 6.7820435 -24.037567zm-8.5849 -13.220642l-48.33264 125.85379l17.684753 0l13.821594 -38.1167l52.625122 0l14.680054 38.1167l18.972534 0l-51.509094 -125.85379z" fill-rule="evenodd"/><path fill="#000000" fill-opacity="0.0" d="m846.6877 297.09372l0 125.85379l16.654541 0l0 -125.85379z" fill-rule="evenodd"/><path stroke="#ffd966" stroke-width="3.0" stroke-linejoin="round" stroke-linecap="butt" d="m156.03702 294.9475c-11.103073 0 -21.280884 2.5372925 -30.533432 7.6118774c-9.233482 5.055542 -16.358902 12.467102 -21.376259 22.234772c-4.998291 9.748566 -7.497429 21.175934 -7.497429 34.282135c0 12.018768 2.2129745 23.264923 6.6389465 33.738434c4.44503 10.473511 10.912277 18.47647 19.401749 24.008942c8.508514 5.5133667 19.54483 8.27005 33.10887 8.27005c13.106201 0 24.19017 -3.5865479 33.25197 -10.759674c9.080841 -7.192169 15.366867 -17.627533 18.858032 -31.30606l-16.654587 -4.2065735c-2.2892914 10.587982 -6.667572 18.5719 -13.134811 23.951721c-6.4672546 5.3798523 -14.365311 8.069763 -23.694168 8.069763c-7.6691284 0 -14.794556 -1.9745178 -21.376266 -5.9235535c-6.581711 -3.9490356 -11.436928 -9.910736 -14.565613 -17.88507c-3.1096344 -7.993469 -4.6644363 -17.3414 -4.6644363 -28.043823c0 -8.298706 1.3163452 -16.349365 3.949028 -24.152039c2.6326904 -7.821747 7.1921844 -14.050537 13.678513 -18.68634c6.5054016 -4.635803 14.594238 -6.9537354 24.266495 -6.9537354c8.413147 0 15.395493 2.0889893 20.947021 6.2669373c5.551529 4.1779785 9.786713 10.84552 12.705566 20.002686l16.397049 -3.8631592c-3.376709 -11.618164 -9.357483 -20.632263 -17.942322 -27.042267c-8.584839 -6.4100037 -19.172821 -9.615021 -31.763916 -9.615021z" fill-rule="evenodd"/><path stroke="#ffd966" stroke-width="3.0" stroke-linejoin="round" stroke-linecap="butt" d="m228.92233 297.09372l0 125.85379l16.654602 0l0 -59.32126l65.416504 0l0 59.32126l16.654602 0l0 -125.85379l-16.654602 0l0 51.680756l-65.416504 0l0 -51.680756z" fill-rule="evenodd"/><path stroke="#ffd966" stroke-width="3.0" stroke-linejoin="round" stroke-linecap="butt" d="m355.72046 297.09372l0 125.85379l93.91818 0l0 -14.851776l-77.26358 0l0 -42.83835l69.62308 0l0 -14.76593l-69.62308 0l0 -38.54596l74.34476 0l0 -14.851776z" fill-rule="evenodd"/><path stroke="#ffd966" stroke-width="3.0" stroke-linejoin="round" stroke-linecap="butt" d="m472.47433 297.09372l0 125.85379l15.967804 0l0 -98.8974l66.10327 98.8974l17.083862 0l0 -125.85379l-15.967773 0l0 98.811554l-66.10333 -98.811554z" fill-rule="evenodd"/><path stroke="#ffd966" stroke-width="3.0" stroke-linejoin="round" stroke-linecap="butt" d="m599.44415 297.09372l0 125.85379l15.967834 0l0 -98.8974l66.10327 98.8974l17.083862 0l0 -125.85379l-15.967834 0l0 98.811554l-66.10327 -98.811554z" fill-rule="evenodd"/><path stroke="#ffd966" stroke-width="3.0" stroke-linejoin="round" stroke-linecap="butt" d="m769.68164 310.31436c1.9458618 6.810669 4.921936 15.509979 8.928223 26.09793l13.134827 34.85446l-42.666687 0l13.821594 -36.914825c2.9188232 -7.9552917 5.1795044 -15.967804 6.7820435 -24.037567zm-8.5849 -13.220642l-48.33264 125.85379l17.684753 0l13.821594 -38.1167l52.625122 0l14.680054 38.1167l18.972534 0l-51.509094 -125.85379z" fill-rule="evenodd"/><path stroke="#ffd966" stroke-width="3.0" stroke-linejoin="round" stroke-linecap="butt" d="m846.6877 297.09372l0 125.85379l16.654541 0l0 -125.85379z" fill-rule="evenodd"/></g></svg>
