<svg version="1.1" viewBox="0.0 0.0 960.0 720.0" fill="none" stroke="none" stroke-linecap="square" stroke-miterlimit="10" xmlns:xlink="http://www.w3.org/1999/xlink" xmlns="http://www.w3.org/2000/svg"><clipPath id="p.0"><path d="m0 0l960.0 0l0 720.0l-960.0 0l0 -720.0z" clip-rule="nonzero"/></clipPath><g clip-path="url(#p.0)"><path fill="#000000" fill-opacity="0.0" d="m0 0l960.0 0l0 720.0l-960.0 0z" fill-rule="evenodd"/><path fill="#ffffff" d="m278.88593 311.90952c9.901184 0 17.083832 0.85849 21.547943 2.57547c6.1810913 2.4037476 11.427399 7.1445007 15.738892 14.2221985c4.3305664 7.058655 6.4958496 17.169708 6.4958496 30.33313c0 9.500549 -1.1064758 17.589386 -3.319458 24.26648c-2.1939087 6.65802 -5.265381 11.961548 -9.214386 15.9105835c-2.8043823 2.8043823 -6.572174 4.9792175 -11.303406 6.524475c-4.712097 1.5452881 -11.217529 2.3179016 -19.516205 2.3179016l-26.870544 0l0 -96.15024zm-43.095917 -14.851776l0 125.85382l45.41382 0c7.611908 0 14.346222 -0.7154236 20.203003 -2.1462402c5.8758545 -1.4307861 10.883667 -3.5293274 15.023468 -6.295532c4.1588745 -2.7853088 7.983917 -6.5912476 11.475067 -11.417847c3.4911804 -4.8456726 6.352783 -10.959991 8.584869 -18.342957c2.2320557 -7.382965 3.3480835 -15.8533325 3.3480835 -25.411133c0 -11.217529 -1.6502075 -21.185486 -4.950592 -29.90387c-3.281311 -8.737457 -8.241455 -15.9105835 -14.880402 -21.519348c-5.093689 -4.34964 -11.246155 -7.3543396 -18.457428 -9.014069c-5.1509094 -1.2018738 -12.61972 -1.8028259 -22.406433 -1.8028259z" fill-rule="evenodd"/><path fill="#ffffff" d="m363.10324 297.05774l0 125.85382l93.91818 0l0 -14.851807l-77.26358 0l0 -42.83835l69.62308 0l0 -14.76593l-69.62308 0l0 -38.54596l74.34473 0l0 -14.851776z" fill-rule="evenodd"/><path fill="#ffffff" d="m479.342 297.05774l0 125.85382l78.63718 0l0 -14.851807l-61.982574 0l0 -111.002014z" fill-rule="evenodd"/><path fill="#ffffff" d="m578.32526 297.05774l0 125.85382l16.654602 0l0 -59.32129l65.416504 0l0 59.32129l16.654602 0l0 -125.85382l-16.654602 0l0 51.680756l-65.416504 0l0 -51.680756z" fill-rule="evenodd"/><path fill="#ffffff" d="m707.613 297.05774l0 125.85382l16.654602 0l0 -125.85382z" fill-rule="evenodd"/><path stroke="#1c4587" stroke-width="3.0" stroke-linejoin="round" stroke-linecap="butt" d="m278.88593 311.90952c9.901184 0 17.083832 0.85849 21.547943 2.57547c6.1810913 2.4037476 11.427399 7.1445007 15.738892 14.2221985c4.3305664 7.058655 6.4958496 17.169708 6.4958496 30.33313c0 9.500549 -1.1064758 17.589386 -3.319458 24.26648c-2.1939087 6.65802 -5.265381 11.961548 -9.214386 15.9105835c-2.8043823 2.8043823 -6.572174 4.9792175 -11.303406 6.524475c-4.712097 1.5452881 -11.217529 2.3179016 -19.516205 2.3179016l-26.870544 0l0 -96.15024zm-43.095917 -14.851776l0 125.85382l45.41382 0c7.611908 0 14.346222 -0.7154236 20.203003 -2.1462402c5.8758545 -1.4307861 10.883667 -3.5293274 15.023468 -6.295532c4.1588745 -2.7853088 7.983917 -6.5912476 11.475067 -11.417847c3.4911804 -4.8456726 6.352783 -10.959991 8.584869 -18.342957c2.2320557 -7.382965 3.3480835 -15.8533325 3.3480835 -25.411133c0 -11.217529 -1.6502075 -21.185486 -4.950592 -29.90387c-3.281311 -8.737457 -8.241455 -15.9105835 -14.880402 -21.519348c-5.093689 -4.34964 -11.246155 -7.3543396 -18.457428 -9.014069c-5.1509094 -1.2018738 -12.61972 -1.8028259 -22.406433 -1.8028259z" fill-rule="evenodd"/><path stroke="#1c4587" stroke-width="3.0" stroke-linejoin="round" stroke-linecap="butt" d="m363.10324 297.05774l0 125.85382l93.91818 0l0 -14.851807l-77.26358 0l0 -42.83835l69.62308 0l0 -14.76593l-69.62308 0l0 -38.54596l74.34473 0l0 -14.851776z" fill-rule="evenodd"/><path stroke="#1c4587" stroke-width="3.0" stroke-linejoin="round" stroke-linecap="butt" d="m479.342 297.05774l0 125.85382l78.63718 0l0 -14.851807l-61.982574 0l0 -111.002014z" fill-rule="evenodd"/><path stroke="#1c4587" stroke-width="3.0" stroke-linejoin="round" stroke-linecap="butt" d="m578.32526 297.05774l0 125.85382l16.654602 0l0 -59.32129l65.416504 0l0 59.32129l16.654602 0l0 -125.85382l-16.654602 0l0 51.680756l-65.416504 0l0 -51.680756z" fill-rule="evenodd"/><path stroke="#1c4587" stroke-width="3.0" stroke-linejoin="round" stroke-linecap="butt" d="m707.613 297.05774l0 125.85382l16.654602 0l0 -125.85382z" fill-rule="evenodd"/></g></svg>