<svg version="1.1" viewBox="0.0 0.0 960.0 720.0" fill="white" stroke="none" stroke-linecap="square" stroke-miterlimit="10" xmlns:xlink="http://www.w3.org/1999/xlink" xmlns="http://www.w3.org/2000/svg">
  <clipPath id="p.0">
    <path d="m0 0l960.0 0l0 720.0l-960.0 0l0 -720.0z" clip-rule="nonzero"/></clipPath><g clip-path="url(#p.0)"><path fill="#000000" fill-opacity="0.0" d="m0 0l960.0 0l0 720.0l-960.0 0z" fill-rule="evenodd"/>
    <path fill="#000000" fill-opacity="0.0" d="m96.6299 297.17957l0 125.85379l16.654594 0l0 -43.610992l20.60363 -20.088531l44.81288 63.699524l21.977188 0l-55.114685 -74.85983l52.796783 -50.993958l-22.57814 0l-62.497658 62.411804l0 -62.411804z" fill-rule="evenodd"/>
    <path fill="#000000" fill-opacity="0.0" d="m269.87204 309.28418c8.298676 0 15.777039 2.1080627 22.435059 6.324188c6.6770935 4.1970215 11.742157 10.120575 15.19516 17.77063c3.472107 7.630951 5.2081604 16.568726 5.2081604 26.813324c0 16.196716 -4.053955 28.701996 -12.161865 37.515747c-8.088837 8.813782 -18.400177 13.220673 -30.934052 13.220673c-12.304962 0 -22.540009 -4.359192 -30.70514 -13.077576c-8.146072 -8.737457 -12.219086 -20.689484 -12.219086 -35.85605c0 -18.943878 4.2447205 -32.460236 12.734177 -40.549072c8.50853 -8.10788 18.65773 -12.161835 30.447586 -12.161865zm-0.08584595 -14.33667c-17.74202 0 -32.221786 5.9140015 -43.439316 17.742004c-11.217529 11.808929 -16.826294 28.158295 -16.826294 49.048065c0 11.045837 2.4037628 21.519348 7.211273 31.420532c4.8075104 9.901184 11.875702 17.71341 21.20456 23.436615c9.328873 5.723236 19.916824 8.584839 31.763931 8.584839c10.931366 0 21.118713 -2.5849915 30.562042 -7.7549744c9.443329 -5.1890564 16.740448 -12.820007 21.891327 -22.892914c5.1509094 -10.072876 7.7263794 -21.490723 7.7263794 -34.25351c0 -12.591095 -2.4514465 -23.846802 -7.3543396 -33.76706c-4.8838196 -9.939331 -11.990173 -17.684784 -21.31903 -23.236298c-9.328888 -5.551544 -19.802399 -8.327301 -31.420532 -8.327301z" fill-rule="evenodd"/><path fill="#000000" fill-opacity="0.0" d="m350.65543 297.17957l0 125.85379l78.637146 0l0 -14.851776l-61.982574 0l0 -111.002014z" fill-rule="evenodd"/>
    <path fill="#000000" fill-opacity="0.0" d="m609.48846 310.40024c1.9458618 6.8106384 4.921936 15.509949 8.928223 26.0979l13.134827 34.85446l-42.666687 0l13.821594 -36.914825c2.9188232 -7.9552917 5.1795044 -15.967804 6.7820435 -24.037537zm-161.0517 -13.220673l0 125.85379l16.654602 0l0 -43.610992l20.603638 -20.088531l44.812866 63.699524l21.977234 0l-55.114716 -74.85983l52.796783 -50.993958l-22.578125 0l-62.49768 62.411804l0 -62.411804zm152.4668 0l-48.33264 125.85379l17.684753 0l13.821655 -38.1167l52.62506 0l14.680054 38.1167l18.972534 0l-51.509094 -125.85379z" fill-rule="evenodd"/>
    <path fill="#000000" fill-opacity="0.0" d="m674.21814 297.17957l0 14.851776l41.464783 0l0 111.002014l16.654602 0l0 -111.002014l41.636536 0l0 -14.851776z" fill-rule="evenodd"/><path fill="#000000" fill-opacity="0.0" d="m834.1538 310.40024c1.9458618 6.8106384 4.921936 15.509949 8.928223 26.0979l13.134827 34.85446l-42.666687 0l13.821594 -36.914825c2.9188232 -7.9552917 5.1795044 -15.967804 6.7820435 -24.037537zm-8.584839 -13.220673l-48.332703 125.85379l17.684814 0l13.821594 -38.1167l52.62506 0l14.680115 38.1167l18.972473 0l-51.509033 -125.85379z" fill-rule="evenodd"/>
    <path stroke="#674ea7" stroke-width="3.0" stroke-linejoin="round" stroke-linecap="butt" d="m96.6299 297.17957l0 125.85379l16.654594 0l0 -43.610992l20.60363 -20.088531l44.81288 63.699524l21.977188 0l-55.114685 -74.85983l52.796783 -50.993958l-22.57814 0l-62.497658 62.411804l0 -62.411804z" fill-rule="evenodd"/>
    <path stroke="#674ea7" stroke-width="3.0" stroke-linejoin="round" stroke-linecap="butt" d="m269.87204 309.28418c8.298676 0 15.777039 2.1080627 22.435059 6.324188c6.6770935 4.1970215 11.742157 10.120575 15.19516 17.77063c3.472107 7.630951 5.2081604 16.568726 5.2081604 26.813324c0 16.196716 -4.053955 28.701996 -12.161865 37.515747c-8.088837 8.813782 -18.400177 13.220673 -30.934052 13.220673c-12.304962 0 -22.540009 -4.359192 -30.70514 -13.077576c-8.146072 -8.737457 -12.219086 -20.689484 -12.219086 -35.85605c0 -18.943878 4.2447205 -32.460236 12.734177 -40.549072c8.50853 -8.10788 18.65773 -12.161835 30.447586 -12.161865zm-0.08584595 -14.33667c-17.74202 0 -32.221786 5.9140015 -43.439316 17.742004c-11.217529 11.808929 -16.826294 28.158295 -16.826294 49.048065c0 11.045837 2.4037628 21.519348 7.211273 31.420532c4.8075104 9.901184 11.875702 17.71341 21.20456 23.436615c9.328873 5.723236 19.916824 8.584839 31.763931 8.584839c10.931366 0 21.118713 -2.5849915 30.562042 -7.7549744c9.443329 -5.1890564 16.740448 -12.820007 21.891327 -22.892914c5.1509094 -10.072876 7.7263794 -21.490723 7.7263794 -34.25351c0 -12.591095 -2.4514465 -23.846802 -7.3543396 -33.76706c-4.8838196 -9.939331 -11.990173 -17.684784 -21.31903 -23.236298c-9.328888 -5.551544 -19.802399 -8.327301 -31.420532 -8.327301z" fill-rule="evenodd"/>
    <path stroke="#674ea7" stroke-width="3.0" stroke-linejoin="round" stroke-linecap="butt" d="m350.65543 297.17957l0 125.85379l78.637146 0l0 -14.851776l-61.982574 0l0 -111.002014z" fill-rule="evenodd"/>
    <path stroke="#674ea7" stroke-width="3.0" stroke-linejoin="round" stroke-linecap="butt" d="m609.48846 310.40024c1.9458618 6.8106384 4.921936 15.509949 8.928223 26.0979l13.134827 34.85446l-42.666687 0l13.821594 -36.914825c2.9188232 -7.9552917 5.1795044 -15.967804 6.7820435 -24.037537zm-161.0517 -13.220673l0 125.85379l16.654602 0l0 -43.610992l20.603638 -20.088531l44.812866 63.699524l21.977234 0l-55.114716 -74.85983l52.796783 -50.993958l-22.578125 0l-62.49768 62.411804l0 -62.411804zm152.4668 0l-48.33264 125.85379l17.684753 0l13.821655 -38.1167l52.62506 0l14.680054 38.1167l18.972534 0l-51.509094 -125.85379z" fill-rule="evenodd"/>
    <path stroke="#674ea7" stroke-width="3.0" stroke-linejoin="round" stroke-linecap="butt" d="m674.21814 297.17957l0 14.851776l41.464783 0l0 111.002014l16.654602 0l0 -111.002014l41.636536 0l0 -14.851776z" fill-rule="evenodd"/><path stroke="#674ea7" stroke-width="3.0" stroke-linejoin="round" stroke-linecap="butt" d="m834.1538 310.40024c1.9458618 6.8106384 4.921936 15.509949 8.928223 26.0979l13.134827 34.85446l-42.666687 0l13.821594 -36.914825c2.9188232 -7.9552917 5.1795044 -15.967804 6.7820435 -24.037537zm-8.584839 -13.220673l-48.332703 125.85379l17.684814 0l13.821594 -38.1167l52.62506 0l14.680115 38.1167l18.972473 0l-51.509033 -125.85379z" fill-rule="evenodd"/></g></svg>
