<svg version="1.1" viewBox="0.0 0.0 960.0 720.0" fill="none" stroke="none" stroke-linecap="square" stroke-miterlimit="10" xmlns:xlink="http://www.w3.org/1999/xlink" xmlns="http://www.w3.org/2000/svg"><clipPath id="p.0"><path d="m0 0l960.0 0l0 720.0l-960.0 0l0 -720.0z" clip-rule="nonzero"/></clipPath><g clip-path="url(#p.0)"><path fill="#000000" fill-opacity="0.0" d="m0 0l960.0 0l0 720.0l-960.0 0z" fill-rule="evenodd"/><path fill="#ffffff" d="m193.47635 310.8544c7.554657 0 12.734177 0.37200928 15.538559 1.1160278c4.349655 1.2018738 7.850357 3.6819458 10.502136 7.440216c2.6708221 3.7391663 4.006256 8.241425 4.006256 13.506805c0 7.2684937 -2.2606812 12.905884 -6.782028 16.91214c-4.521347 4.006256 -12.161865 6.0093994 -22.921524 6.0093994l-32.53656 0l0 -44.98459zm-48.847763 -14.851776l0 125.85379l16.654602 0l0 -51.16565l32.279007 0c17.79924 0 30.104187 -3.7010193 36.914825 -11.103058c6.8106384 -7.4211426 10.215958 -16.48291 10.215958 -27.185333c0 -6.2383423 -1.278183 -11.961548 -3.834549 -17.169708c-2.5373077 -5.20813 -5.894928 -9.252533 -10.072891 -12.13324c-4.1779633 -2.8997803 -9.357483 -4.864746 -15.538559 -5.894928c-4.406891 -0.801239 -10.7883 -1.2018738 -19.14421 -1.2018738z" fill-rule="evenodd"/><path fill="#ffffff" d="m262.1551 296.00262l0 72.71362c0 13.335114 1.6025085 23.856323 4.8075256 31.563599c3.2049866 7.688202 8.556213 13.564056 16.05365 17.627563c7.4974365 4.0634766 17.141052 6.095215 28.930908 6.095215c12.13327 0 21.929535 -2.327423 29.388794 -6.9823303c7.478363 -4.6739807 12.648346 -10.731049 15.509949 -18.171234c2.8616028 -7.440216 4.2924194 -17.484467 4.2924194 -30.132812l0 -72.71362l-16.654602 0l0 72.62778c0 15.796112 -2.604065 26.46994 -7.812195 32.021454c-5.20813 5.551544 -13.936066 8.327301 -26.183777 8.327301c-7.1540527 0 -13.211121 -1.4021912 -18.171265 -4.2065735c-4.94104 -2.8043823 -8.43222 -6.791565 -10.473511 -11.961548c-2.0221863 -5.1890564 -3.0332947 -13.249268 -3.0332947 -24.180634l0 -72.62778z" fill-rule="evenodd"/><path fill="#ffffff" d="m388.69568 296.00262l0 125.85379l15.967804 0l0 -98.89737l66.1033 98.89737l17.083832 0l0 -125.85379l-15.967804 0l0 98.811554l-66.1033 -98.811554z" fill-rule="evenodd"/><path fill="#ffffff" d="m559.87744 296.00262l0 86.70691c0 7.211273 -0.57232666 12.467102 -1.71698 15.767517c-1.1445923 3.281311 -3.2335815 5.885376 -6.2669067 7.812195c-3.0333252 1.9077454 -6.638916 2.8616028 -10.816895 2.8616028c-5.6660156 0 -10.101501 -1.7742004 -13.306519 -5.3226013c-3.205017 -3.5484009 -5.0078125 -10.130096 -5.4084473 -19.745117l-15.023468 2.0603638c-0.22894287 12.533844 2.5849915 21.977173 8.441742 28.329956c5.8758545 6.352783 14.33667 9.529175 25.382507 9.529175c7.4402466 0 13.916992 -1.5166321 19.430359 -4.5499573c5.5324707 -3.0332947 9.567383 -7.4401855 12.104675 -13.220642c2.5563354 -5.780487 3.8345337 -13.936066 3.8345337 -24.466827l0 -85.76257z" fill-rule="evenodd"/><path fill="#ffffff" d="m646.8419 309.2233c1.9459229 6.8106384 4.921997 15.509949 8.928223 26.0979l13.134827 34.85446l-42.666687 0l13.821594 -36.914825c2.9188843 -7.9552917 5.1795654 -15.967804 6.7820435 -24.037537zm-8.584839 -13.220673l-48.33264 125.85379l17.684753 0l13.821594 -38.1167l52.62506 0l14.680115 38.1167l18.972473 0l-51.509033 -125.85379z" fill-rule="evenodd"/><path fill="#ffffff" d="m762.13635 310.8544c9.042725 0 15.424133 0.59140015 19.144226 1.7742004c3.7200928 1.1637268 6.581726 3.338562 8.584839 6.524475c2.0031128 3.16687 3.0046997 6.839264 3.0046997 11.017212c0 4.406891 -1.0778809 8.069763 -3.2336426 10.988617c-2.1366577 2.9188538 -5.322571 5.0078125 -9.5578 6.2669373c-3.205017 0.9729309 -8.498962 1.4594116 -15.881958 1.4594116l-27.213928 0l0 -38.030853zm3.9490356 52.88263c8.012512 0 14.145935 0.7058716 18.400208 2.1176147c4.2733154 1.3926392 7.6118774 3.8250122 10.015625 7.297119c2.4037476 3.453003 3.6056519 7.5260315 3.6056519 12.219086c0 4.006256 -0.829895 7.545105 -2.489624 10.616577c-1.659729 3.0523987 -3.7773438 5.3798523 -6.352783 6.9823303c-2.5754395 1.6025085 -5.7804565 2.7471619 -9.61499 3.43396c-2.1748657 0.40060425 -5.9522095 0.60092163 -11.332031 0.60092163l-31.334656 0l0 -43.26761zm-45.757202 -67.734406l0 125.85379l47.989258 0c8.012512 0 14.775452 -0.6963196 20.28888 -2.0889587c5.5324097 -1.4117432 10.130066 -3.4911804 13.792969 -6.2383423c3.6628418 -2.7471313 6.734314 -6.648468 9.2144165 -11.7039795c2.4990845 -5.0746155 3.7486572 -10.559357 3.7486572 -16.454285c0 -7.3257446 -2.0507812 -13.678528 -6.152466 -19.05835c-4.0825806 -5.3798523 -9.929749 -9.185791 -17.541687 -11.417847c5.8949585 -2.9188538 10.301819 -6.753418 13.220703 -11.503693c2.9188232 -4.7502747 4.378235 -9.815338 4.378235 -15.19516c0 -5.780487 -1.6502075 -11.312927 -4.9505615 -16.597382c-3.281372 -5.303528 -7.831299 -9.223938 -13.649902 -11.76123c-5.7995605 -2.556366 -13.506836 -3.8345642 -23.121887 -3.8345642z" fill-rule="evenodd"/><path stroke="#e06666" stroke-width="3.0" stroke-linejoin="round" stroke-linecap="butt" d="m193.47635 310.8544c7.554657 0 12.734177 0.37200928 15.538559 1.1160278c4.349655 1.2018738 7.850357 3.6819458 10.502136 7.440216c2.6708221 3.7391663 4.006256 8.241425 4.006256 13.506805c0 7.2684937 -2.2606812 12.905884 -6.782028 16.91214c-4.521347 4.006256 -12.161865 6.0093994 -22.921524 6.0093994l-32.53656 0l0 -44.98459zm-48.847763 -14.851776l0 125.85379l16.654602 0l0 -51.16565l32.279007 0c17.79924 0 30.104187 -3.7010193 36.914825 -11.103058c6.8106384 -7.4211426 10.215958 -16.48291 10.215958 -27.185333c0 -6.2383423 -1.278183 -11.961548 -3.834549 -17.169708c-2.5373077 -5.20813 -5.894928 -9.252533 -10.072891 -12.13324c-4.1779633 -2.8997803 -9.357483 -4.864746 -15.538559 -5.894928c-4.406891 -0.801239 -10.7883 -1.2018738 -19.14421 -1.2018738z" fill-rule="evenodd"/><path stroke="#e06666" stroke-width="3.0" stroke-linejoin="round" stroke-linecap="butt" d="m262.1551 296.00262l0 72.71362c0 13.335114 1.6025085 23.856323 4.8075256 31.563599c3.2049866 7.688202 8.556213 13.564056 16.05365 17.627563c7.4974365 4.0634766 17.141052 6.095215 28.930908 6.095215c12.13327 0 21.929535 -2.327423 29.388794 -6.9823303c7.478363 -4.6739807 12.648346 -10.731049 15.509949 -18.171234c2.8616028 -7.440216 4.2924194 -17.484467 4.2924194 -30.132812l0 -72.71362l-16.654602 0l0 72.62778c0 15.796112 -2.604065 26.46994 -7.812195 32.021454c-5.20813 5.551544 -13.936066 8.327301 -26.183777 8.327301c-7.1540527 0 -13.211121 -1.4021912 -18.171265 -4.2065735c-4.94104 -2.8043823 -8.43222 -6.791565 -10.473511 -11.961548c-2.0221863 -5.1890564 -3.0332947 -13.249268 -3.0332947 -24.180634l0 -72.62778z" fill-rule="evenodd"/><path stroke="#e06666" stroke-width="3.0" stroke-linejoin="round" stroke-linecap="butt" d="m388.69568 296.00262l0 125.85379l15.967804 0l0 -98.89737l66.1033 98.89737l17.083832 0l0 -125.85379l-15.967804 0l0 98.811554l-66.1033 -98.811554z" fill-rule="evenodd"/><path stroke="#e06666" stroke-width="3.0" stroke-linejoin="round" stroke-linecap="butt" d="m559.87744 296.00262l0 86.70691c0 7.211273 -0.57232666 12.467102 -1.71698 15.767517c-1.1445923 3.281311 -3.2335815 5.885376 -6.2669067 7.812195c-3.0333252 1.9077454 -6.638916 2.8616028 -10.816895 2.8616028c-5.6660156 0 -10.101501 -1.7742004 -13.306519 -5.3226013c-3.205017 -3.5484009 -5.0078125 -10.130096 -5.4084473 -19.745117l-15.023468 2.0603638c-0.22894287 12.533844 2.5849915 21.977173 8.441742 28.329956c5.8758545 6.352783 14.33667 9.529175 25.382507 9.529175c7.4402466 0 13.916992 -1.5166321 19.430359 -4.5499573c5.5324707 -3.0332947 9.567383 -7.4401855 12.104675 -13.220642c2.5563354 -5.780487 3.8345337 -13.936066 3.8345337 -24.466827l0 -85.76257z" fill-rule="evenodd"/><path stroke="#e06666" stroke-width="3.0" stroke-linejoin="round" stroke-linecap="butt" d="m646.8419 309.2233c1.9459229 6.8106384 4.921997 15.509949 8.928223 26.0979l13.134827 34.85446l-42.666687 0l13.821594 -36.914825c2.9188843 -7.9552917 5.1795654 -15.967804 6.7820435 -24.037537zm-8.584839 -13.220673l-48.33264 125.85379l17.684753 0l13.821594 -38.1167l52.62506 0l14.680115 38.1167l18.972473 0l-51.509033 -125.85379z" fill-rule="evenodd"/><path stroke="#e06666" stroke-width="3.0" stroke-linejoin="round" stroke-linecap="butt" d="m762.13635 310.8544c9.042725 0 15.424133 0.59140015 19.144226 1.7742004c3.7200928 1.1637268 6.581726 3.338562 8.584839 6.524475c2.0031128 3.16687 3.0046997 6.839264 3.0046997 11.017212c0 4.406891 -1.0778809 8.069763 -3.2336426 10.988617c-2.1366577 2.9188538 -5.322571 5.0078125 -9.5578 6.2669373c-3.205017 0.9729309 -8.498962 1.4594116 -15.881958 1.4594116l-27.213928 0l0 -38.030853zm3.9490356 52.88263c8.012512 0 14.145935 0.7058716 18.400208 2.1176147c4.2733154 1.3926392 7.6118774 3.8250122 10.015625 7.297119c2.4037476 3.453003 3.6056519 7.5260315 3.6056519 12.219086c0 4.006256 -0.829895 7.545105 -2.489624 10.616577c-1.659729 3.0523987 -3.7773438 5.3798523 -6.352783 6.9823303c-2.5754395 1.6025085 -5.7804565 2.7471619 -9.61499 3.43396c-2.1748657 0.40060425 -5.9522095 0.60092163 -11.332031 0.60092163l-31.334656 0l0 -43.26761zm-45.757202 -67.734406l0 125.85379l47.989258 0c8.012512 0 14.775452 -0.6963196 20.28888 -2.0889587c5.5324097 -1.4117432 10.130066 -3.4911804 13.792969 -6.2383423c3.6628418 -2.7471313 6.734314 -6.648468 9.2144165 -11.7039795c2.4990845 -5.0746155 3.7486572 -10.559357 3.7486572 -16.454285c0 -7.3257446 -2.0507812 -13.678528 -6.152466 -19.05835c-4.0825806 -5.3798523 -9.929749 -9.185791 -17.541687 -11.417847c5.8949585 -2.9188538 10.301819 -6.753418 13.220703 -11.503693c2.9188232 -4.7502747 4.378235 -9.815338 4.378235 -15.19516c0 -5.780487 -1.6502075 -11.312927 -4.9505615 -16.597382c-3.281372 -5.303528 -7.831299 -9.223938 -13.649902 -11.76123c-5.7995605 -2.556366 -13.506836 -3.8345642 -23.121887 -3.8345642z" fill-rule="evenodd"/></g></svg>