<svg width="600" height="300" xmlns="http://www.w3.org/2000/svg" xmlns:svg="http://www.w3.org/2000/svg">
 <!--Created with SVG-edit - http://svg-edit.googlecode.com/-->
 <g>
  <title>Layer 1</title>
  <g id="svg_13">
   <rect fill="#007fff" stroke="#000000" stroke-dasharray="null" stroke-linejoin="null" stroke-linecap="null" x="150" y="200" width="300" height="45" id="winnerIs" stroke-opacity="0" rx="5" ry="5"/>
   <text fill="#ffffff" stroke="#000000" stroke-width="0" stroke-dasharray="null" stroke-linejoin="null" stroke-linecap="null" stroke-opacity="0" x="300" y="235" id="svg_14" font-size="28" font-family="Sans-serif" text-anchor="middle" xml:space="preserve">WINNER IS</text>
  </g>
  <rect opacity="0.5" stroke="#000000" id="svg_16" height="50" width="600" y="0" x="0" stroke-linecap="null" stroke-linejoin="null" stroke-dasharray="null" stroke-width="0" fill="#007fff"/>
  <rect id="svg_1" opacity="0.79" x="0" y="50" class="Bg-fill-A" ry="2" rx="2" height="200" width="300" fill="white"/>
  <text class="Alogo" fill="#ffffff" stroke-dasharray="null" stroke-linejoin="null" stroke-linecap="null" x="100" y="150" id="svg_12" font-size="28" font-family="Sans-serif" text-anchor="middle" xml:space="preserve" font-weight="bold" transform="matrix(1.7633087266475653,0,0,1.5820827484130857,-26.81894937781125,-91.53296691179277) " stroke="#000000">MUMBAI</text>
  <rect id="svg_6" opacity="0.79" y="50" class="Bg-fill-B" ry="2" rx="2" height="200" width="300" x="300" fill="orange"/>
  <rect id="svg_7" y="200" ry="2" rx="2" height="46" width="150" x="150" stroke="#FFF" stroke-width="2" fill="#005ea0"/>
  <text id="teamA-txt" font-weight="bold" stroke="#000" transform="matrix(1.2580341928392649,0,0,1.3056176841199398,44.20121839559255,5.5061376631121774) " text-anchor="middle" font-family="Sans-serif" font-size="28" y="178.29605" x="120" stroke-linecap="null" stroke-linejoin="null" stroke-dasharray="null" stroke-width="0" fill="#ffffff">MI</text>
  <rect id="svg_10" y="200" ry="2" rx="2" height="46" width="150" x="300" stroke-width="2" stroke="#FFF" fill="orange"/>
  <text id="teamB-txt" font-weight="bold" stroke="#000" transform="matrix(1.1090537981188295,0,0,1.3807705561637877,-77.71718149454794,-2.8280747034162665) " text-anchor="middle" font-family="Sans-serif" font-size="28" y="175.48743" x="420" stroke-linecap="null" stroke-linejoin="null" stroke-dasharray="null" stroke-width="0" fill="#ffffff">CSK</text>
  <rect id="svg_11" y="200" ry="50" rx="50" height="46" width="46" x="275" fill="#000000" fill-opacity="0.5" stroke-width="2" stroke="#ffffff"/>
  <text font-weight="bold" stroke="#000" transform="matrix(0.8692350902832073,0,0,0.9829856802241457,120.14429489395803,42.69531860675981) " text-anchor="middle" font-family="Sans-serif" font-size="28" y="194.02086" x="204.63065" stroke-linecap="null" stroke-linejoin="null" stroke-dasharray="null" fill="#ffffff" id="Vs">Vs</text>
  <g id="svg_9">
   <rect id="svg_3" ry="2" rx="2" height="30" width="100" y="50" x="1" stroke-width="0" stroke="#000000" fill="rgba(0,0,0,0.45)"/>
   <text font-weight="normal" xml:space="preserve" text-anchor="middle" font-family="serif" font-size="24" id="svg_5" y="75" x="51" stroke-linecap="null" stroke-linejoin="null" stroke-dasharray="null" stroke-width="0" stroke="#000000" fill="#ffffff">Team A</text>
   <rect id="svg_4" height="30" ry="2" rx="2" width="100" y="50" x="501" stroke-width="0" stroke="#000000" fill="rgba(0,0,0,0.45)"/>
   <text font-weight="normal" xml:space="preserve" text-anchor="middle" font-family="serif" font-size="24" id="svg_5" y="75" x="551" stroke-linecap="null" stroke-linejoin="null" stroke-dasharray="null" stroke-width="0" stroke="#000000" fill="#ffffff">Team B</text>
  </g>
  <path fill="#ff0000" stroke="#000000" stroke-width="0" stroke-dasharray="null" stroke-linejoin="null" stroke-linecap="null" d="m263.36405,16.93884c-0.46926,0 -0.84772,0.38016 -0.84772,0.84856l0,7.82461l-5.13042,2.2436c-0.42937,0.18838 -0.62454,0.68903 -0.43616,1.11841c0.13916,0.31821 0.44974,0.50829 0.77644,0.50829c0.11371,0 0.22996,-0.02291 0.34027,-0.07213l5.62258,-2.45914c0.00424,-0.0017 0.00764,-0.00339 0.01103,-0.00509l0.00339,-0.0017c0.01273,-0.00509 0.01952,-0.01697 0.0314,-0.02121c0.08825,-0.04413 0.17056,-0.09589 0.23675,-0.16547c0.02885,-0.02885 0.04497,-0.06619 0.06704,-0.09928c0.04073,-0.05431 0.0857,-0.10777 0.11031,-0.17311c0.02037,-0.05091 0.02206,-0.10607 0.03225,-0.16038c0.01103,-0.05431 0.03225,-0.10268 0.03225,-0.15783l0,-8.38042c0,-0.46756 -0.38016,-0.84772 -0.84941,-0.84772l0,0.00001zm13.25966,1.4485c0,-3.2517 -2.63479,-5.88734 -5.88734,-5.88734c-1.64452,0 -3.12781,0.67546 -4.19191,1.76247c-1.01573,-0.27069 -2.07813,-0.42852 -3.17957,-0.42852c-1.13198,0 -2.22324,0.16547 -3.26443,0.45059c-1.06834,-1.09889 -2.55927,-1.78453 -4.21312,-1.78453c-3.2517,0 -5.88734,2.63564 -5.88734,5.88734c0,1.5656 0.61606,2.9844 1.61312,4.03916c-0.37591,1.1795 -0.58127,2.43538 -0.58127,3.74047c0,6.81142 5.52161,12.33303 12.33303,12.33303c6.81142,0 12.33303,-5.52161 12.33303,-12.33303c0,-1.33649 -0.21978,-2.61952 -0.61266,-3.82533c0.95379,-1.04458 1.53845,-2.42944 1.53845,-3.95431l0.00001,0zm-13.25881,17.56612c-5.39772,0 -9.78734,-4.39047 -9.78734,-9.78649c0,-5.39687 4.38962,-9.78734 9.78734,-9.78734c5.39772,0 9.78649,4.38962 9.78649,9.78734c0,5.39772 -4.39047,9.78649 -9.78649,9.78649z" id="svg_8"/>
  <text fill="#ffffff" stroke="#000000" stroke-width="0" stroke-dasharray="null" stroke-linejoin="null" stroke-linecap="null" x="520" y="35" id="bidStatus" font-size="24" font-family="Sans-serif" text-anchor="middle" xml:space="preserve" font-weight="bold">BID:</text>
  <text fill="#ffffff" stroke-width="0" stroke-dasharray="null" stroke-linejoin="null" stroke-linecap="null" x="330" y="35" id="lockTime" font-size="24" font-family="Sans-serif" text-anchor="middle" xml:space="preserve" font-weight="bold" transform="matrix(1,0,0,1.1090909242630005,0,-4.41818243265152) " stroke="#000000">12:34:40</text>
  <text font-weight="bold" xml:space="preserve" text-anchor="middle" font-family="Sans-serif" font-size="24" id="Mid" y="35" x="60" stroke-linecap="null" stroke-linejoin="null" stroke-dasharray="null" stroke-width="0" stroke="#000000" fill="#ffffff">01MICSK</text>
  <g id="svg_17">
   <rect fill="#007fff" stroke="#000000" stroke-width="0" stroke-dasharray="null" stroke-linejoin="null" stroke-linecap="null" x="0" y="250" width="300" height="50" id="TA"/>
   <text xml:space="preserve" text-anchor="middle" font-family="Sans-serif" font-size="24" id="cta" y="285" x="125" stroke-linecap="null" stroke-linejoin="null" stroke-dasharray="null" stroke-width="0" stroke="#000000" fill="#ffffff">Ξ</text>
   <rect fill="#00ff7f" stroke="#000000" stroke-width="0" stroke-dasharray="null" stroke-linejoin="null" stroke-linecap="null" x="300" y="250" width="300" height="50" id="TB"/>
   <text id="ctb" xml:space="preserve" text-anchor="middle" font-family="Sans-serif" font-size="24" y="285" x="475" stroke-linecap="null" stroke-linejoin="null" stroke-dasharray="null" stroke-width="0" stroke="#000000" fill="#ffffff">Ξ</text>
  </g>
  <text font-weight="bold" fill="#ffffff" stroke-dasharray="null" stroke-linejoin="null" stroke-linecap="null" x="450" y="150" id="svg_19" font-size="28" font-family="Sans-serif" text-anchor="middle" xml:space="preserve" transform="matrix(1.3855613209307194,0,0,1.5090909004211426,-146.71850280690705,-79.16363501548767) " stroke="#000000" class="Blogo">CHENNAI</text>
 </g>
</svg>

<!-- svg v0.01-->
<svg  viewBox="0 0 600 300" xmlns="http://www.w3.org/2000/svg" xmlns:svg="http://www.w3.org/2000/svg">
 <!--Created with SVG-edit - http://svg-edit.googlecode.com/-->
 <defs>
  <pattern patternUnits="userSpaceOnUse" height="200" width="300" id="fill-teamA">
  <image xlink:href="../assets/css/images/CSK-logo.svg" x="10" y="10" width="600" height="400" ></image>
  </pattern>
  <pattern patternUnits="userSpaceOnUse" height="200" width="300" id="fill-teamB">
  <image xlink:href="../assets/css/images/KKR-logo.svg" x="10" y="10" width="600" height="400" ></image>
  </pattern>
 </defs>
 <g>
  <title>Layer 1</title>
  <g id="svg_18">
   <rect opacity="0.5" stroke="#000000" id="svg_16" height="50" width="600" y="0" x="0" stroke-linecap="null" stroke-linejoin="null" stroke-dasharray="null" stroke-width="0" fill="#007fff"/>
   <g id="svg_2">
    <rect id="svg_1" opacity="0.79" x="0" y="50" class="Bg-fill-A" ry="2" rx="2" height="200" width="300" fill="orange"/>
    <rect fill=url("#fill-teamA") x="0" y="50" id="teamA-logo" ry="2" rx="2" height="200" width="300"/>
    <rect id="svg_6" opacity="0.79" y="50" class="Bg-fill-B" ry="2" rx="2" height="200" width="300" x="300" fill="purple"/>
    <rect fill=url("#fill-teamB") y="50" id="teamB-logo" ry="2" rx="2" height="200" width="300" x="300"/>
    <rect id="teamA-txtBox" y="200" ry="2" rx="2" height="46" width="150" x="150" stroke="#FFF" stroke-width="2" fill="orange"/>
    <text id="teamA-txt" font-weight="bold" stroke="#000" transform="matrix(1.2580341928392649,0,0,1.3056176841199398,44.20121839559255,5.5061376631121774) " text-anchor="middle" font-family="Sans-serif" font-size="28" y="178.29605" x="120" stroke-linecap="null" stroke-linejoin="null" stroke-dasharray="null" stroke-width="0" fill="#ffffff">A</text>
    <rect id="teamB-txtBox" y="200" ry="2" rx="2" height="46" width="150" x="300" stroke-width="2" stroke="#FFF" fill="purple"/>
    <text id="teamB-txt" font-weight="bold" stroke="#000" transform="matrix(1.1090537981188295,0,0,1.3807705561637877,-77.71718149454794,-2.8280747034162665) " text-anchor="middle" font-family="Sans-serif" font-size="28" y="175.48743" x="420" stroke-linecap="null" stroke-linejoin="null" stroke-dasharray="null" stroke-width="0" fill="#ffffff">B</text>
    <rect id="svg_11" y="200" ry="50" rx="50" height="46" width="46" x="275" fill="#000000" fill-opacity="0.5" stroke-width="2" stroke="#ffffff"/>
    <text font-weight="bold" stroke="#000" transform="matrix(0.8692350902832073,0,0,0.9829856802241457,120.14429489395803,42.69531860675981) " text-anchor="middle" font-family="Sans-serif" font-size="28" y="194.02086" x="204.63065" stroke-linecap="null" stroke-linejoin="null" stroke-dasharray="null" fill="#ffffff" id="Vs">Vs</text>
   </g>
   <g id="svg_9">
    <rect id="svg_3" ry="2" rx="2" height="30" width="100" y="50" x="1" stroke-width="0" stroke="#000000" fill="rgba(0,0,0,0.45)"/>
    <text font-weight="normal" xml:space="preserve" text-anchor="middle" font-family="serif" font-size="24" id="svg_5" y="75" x="51" stroke-linecap="null" stroke-linejoin="null" stroke-dasharray="null" stroke-width="0" stroke="#000000" fill="#ffffff">Team A</text>
    <rect id="svg_4" height="30" ry="2" rx="2" width="100" y="50" x="501" stroke-width="0" stroke="#000000" fill="rgba(0,0,0,0.45)"/>
    <text font-weight="normal" xml:space="preserve" text-anchor="middle" font-family="serif" font-size="24" id="svg_5" y="75" x="551" stroke-linecap="null" stroke-linejoin="null" stroke-dasharray="null" stroke-width="0" stroke="#000000" fill="#ffffff">Team B</text>
   </g>
   <path fill="#ff0000" stroke="#000000" stroke-width="0" stroke-dasharray="null" stroke-linejoin="null" stroke-linecap="null" d="m263.36405,16.93884c-0.46926,0 -0.84772,0.38016 -0.84772,0.84856l0,7.82461l-5.13042,2.2436c-0.42937,0.18838 -0.62454,0.68903 -0.43616,1.11841c0.13916,0.31821 0.44974,0.50829 0.77644,0.50829c0.11371,0 0.22996,-0.02291 0.34027,-0.07213l5.62258,-2.45914c0.00424,-0.0017 0.00764,-0.00339 0.01103,-0.00509l0.00339,-0.0017c0.01273,-0.00509 0.01952,-0.01697 0.0314,-0.02121c0.08825,-0.04413 0.17056,-0.09589 0.23675,-0.16547c0.02885,-0.02885 0.04497,-0.06619 0.06704,-0.09928c0.04073,-0.05431 0.0857,-0.10777 0.11031,-0.17311c0.02037,-0.05091 0.02206,-0.10607 0.03225,-0.16038c0.01103,-0.05431 0.03225,-0.10268 0.03225,-0.15783l0,-8.38042c0,-0.46756 -0.38016,-0.84772 -0.84941,-0.84772l0,0.00001zm13.25966,1.4485c0,-3.2517 -2.63479,-5.88734 -5.88734,-5.88734c-1.64452,0 -3.12781,0.67546 -4.19191,1.76247c-1.01573,-0.27069 -2.07813,-0.42852 -3.17957,-0.42852c-1.13198,0 -2.22324,0.16547 -3.26443,0.45059c-1.06834,-1.09889 -2.55927,-1.78453 -4.21312,-1.78453c-3.2517,0 -5.88734,2.63564 -5.88734,5.88734c0,1.5656 0.61606,2.9844 1.61312,4.03916c-0.37591,1.1795 -0.58127,2.43538 -0.58127,3.74047c0,6.81142 5.52161,12.33303 12.33303,12.33303c6.81142,0 12.33303,-5.52161 12.33303,-12.33303c0,-1.33649 -0.21978,-2.61952 -0.61266,-3.82533c0.95379,-1.04458 1.53845,-2.42944 1.53845,-3.95431l0.00001,0zm-13.25881,17.56612c-5.39772,0 -9.78734,-4.39047 -9.78734,-9.78649c0,-5.39687 4.38962,-9.78734 9.78734,-9.78734c5.39772,0 9.78649,4.38962 9.78649,9.78734c0,5.39772 -4.39047,9.78649 -9.78649,9.78649z" id="svg_8"/>
   <text fill="#ffffff" stroke="#000000" stroke-width="0" stroke-dasharray="null" stroke-linejoin="null" stroke-linecap="null" x="520" y="35" id="bidStatus" font-size="24" font-family="Sans-serif" text-anchor="middle" xml:space="preserve" font-weight="bold">BID: LIVE</text>
   <text fill="#ffffff" stroke-width="1" stroke="#F00" stroke-dasharray="null" stroke-linejoin="null" stroke-linecap="null" x="330" y="35" id="lockTime" font-size="24" font-family="Sans-serif" text-anchor="middle" xml:space="preserve" font-weight="bold" transform="matrix(1,0,0,1.1090909242630005,0,-4.41818243265152) " stroke="#000000">00:00:00</text>
   <text font-weight="bold" xml:space="preserve" text-anchor="middle" font-family="Sans-serif" font-size="24" id="Mid" y="35" x="100" stroke-linecap="null" stroke-linejoin="null" stroke-dasharray="null" stroke-width="0" stroke="#000000" fill="#ffffff"></text>
   <g id="svg_17">
    <rect fill="#007fff" stroke="#000000" stroke-width="0" stroke-dasharray="null" stroke-linejoin="null" stroke-linecap="null" x="0" y="250" width="300" height="50" id="TA"/>
    <text xml:space="preserve" text-anchor="middle" font-family="Sans-serif" font-size="24" id="cta" y="285" x="125" stroke-linecap="null" stroke-linejoin="null" stroke-dasharray="null" stroke-width="0" stroke="#000000" fill="#ffffff">Ξ</text>
    <rect fill="#00ff7f" stroke="#000000" stroke-width="0" stroke-dasharray="null" stroke-linejoin="null" stroke-linecap="null" x="300" y="250" width="300" height="50" id="TB"/>
    <text id="ctb" xml:space="preserve" text-anchor="middle" font-family="Sans-serif" font-size="24" y="285" x="475" stroke-linecap="null" stroke-linejoin="null" stroke-dasharray="null" stroke-width="0" stroke="#000000" fill="#ffffff">Ξ</text>
   </g>
  </g>
 </g>
</svg>
