<svg version="1.1" viewBox="0.0 0.0 960.0 720.0" fill="white" stroke="none" stroke-linecap="square" stroke-miterlimit="10" xmlns:xlink="http://www.w3.org/1999/xlink" xmlns="http://www.w3.org/2000/svg"><clipPath id="p.0"><path d="m0 0l960.0 0l0 720.0l-960.0 0l0 -720.0z" clip-rule="nonzero"/></clipPath><g clip-path="url(#p.0)"><path fill="#000000" fill-opacity="0.0" d="m0 0l960.0 0l0 720.0l-960.0 0z" fill-rule="evenodd"/><path fill="#000000" fill-opacity="0.0" d="m142.78214 296.00262l0 125.85379l16.05365 0l0 -107.138824l36.399734 107.138824l15.023483 0l36.571426 -105.33603l0 105.33603l16.053665 0l0 -125.85379l-22.406448 0l-30.132797 87.5654c-3.03331 8.871002 -5.2653656 15.595795 -6.6961823 20.174377c-1.2591095 -4.1207275 -3.2622375 -10.330414 -6.009384 -18.62909l-29.789413 -89.11069z" fill-rule="evenodd"/><path fill="#000000" fill-opacity="0.0" d="m290.0122 296.00262l0 72.71362c0 13.335114 1.602478 23.856323 4.807495 31.563599c3.205017 7.688202 8.556244 13.564056 16.05365 17.627563c7.4974365 4.0634766 17.141083 6.095215 28.930939 6.095215c12.13324 0 21.929504 -2.327423 29.388763 -6.9823303c7.478363 -4.6739807 12.648346 -10.731049 15.509949 -18.171234c2.8616333 -7.440216 4.2924194 -17.484467 4.2924194 -30.132812l0 -72.71362l-16.654572 0l0 72.62778c0 15.796112 -2.604065 26.46994 -7.8122253 32.021454c-5.20813 5.551544 -13.936066 8.327301 -26.183777 8.327301c-7.154022 0 -13.21109 -1.4021912 -18.171234 -4.2065735c-4.94104 -2.8043823 -8.43222 -6.791565 -10.473511 -11.961548c-2.0222168 -5.1890564 -3.0333252 -13.249268 -3.0333252 -24.180634l0 -72.62778z" fill-rule="evenodd"/><path fill="#000000" fill-opacity="0.0" d="m416.20938 296.00262l0 125.85379l16.05368 0l0 -107.138824l36.39972 107.138824l15.023468 0l36.57144 -105.33603l0 105.33603l16.05365 0l0 -125.85379l-22.406433 0l-30.132812 87.5654c-3.0332947 8.871002 -5.2653503 15.595795 -6.696167 20.174377c-1.2590942 -4.1207275 -3.2622375 -10.330414 -6.0093994 -18.62909l-29.789398 -89.11069z" fill-rule="evenodd"/><path fill="#000000" fill-opacity="0.0" d="m604.3033 310.8544c9.042725 0 15.424133 0.59140015 19.144226 1.7742004c3.7200928 1.1637268 6.581726 3.338562 8.584839 6.524475c2.0031128 3.16687 3.0046997 6.839264 3.0046997 11.017212c0 4.406891 -1.0778809 8.069763 -3.2336426 10.988617c-2.1366577 2.9188538 -5.322571 5.0078125 -9.5578 6.2669373c-3.204956 0.9729309 -8.498962 1.4594116 -15.881958 1.4594116l-27.213928 0l0 -38.030853zm3.9490356 52.88263c8.012512 0 14.145935 0.7058716 18.400208 2.1176147c4.2733154 1.3926392 7.6118774 3.8250122 10.015625 7.297119c2.4037476 3.453003 3.6056519 7.5260315 3.6056519 12.219086c0 4.006256 -0.829895 7.545105 -2.489624 10.616577c-1.659729 3.0523987 -3.7773438 5.3798523 -6.352783 6.9823303c-2.5754395 1.6025085 -5.7804565 2.7471619 -9.61499 3.43396c-2.1748657 0.40060425 -5.9521484 0.60092163 -11.332031 0.60092163l-31.334656 0l0 -43.26761zm-45.757202 -67.734406l0 125.85379l47.989258 0c8.012512 0 14.775513 -0.6963196 20.28888 -2.0889587c5.5324707 -1.4117432 10.130127 -3.4911804 13.792969 -6.2383423c3.6628418 -2.7471313 6.734314 -6.648468 9.2144165 -11.7039795c2.4991455 -5.0746155 3.7487183 -10.559357 3.7487183 -16.454285c0 -7.3257446 -2.0508423 -13.678528 -6.152466 -19.05835c-4.0825806 -5.3798523 -9.92981 -9.185791 -17.541748 -11.417847c5.8949585 -2.9188538 10.301819 -6.753418 13.220703 -11.503693c2.9188232 -4.7502747 4.378235 -9.815338 4.378235 -15.19516c0 -5.780487 -1.6502075 -11.312927 -4.9505615 -16.597382c-3.281311 -5.303528 -7.831299 -9.223938 -13.649902 -11.76123c-5.7995605 -2.556366 -13.506836 -3.8345642 -23.121887 -3.8345642z" fill-rule="evenodd"/><path fill="#000000" fill-opacity="0.0" d="m723.54675 309.2233c1.9459229 6.8106384 4.921997 15.509949 8.928284 26.0979l13.134766 34.85446l-42.666626 0l13.821594 -36.914825c2.9188232 -7.9552917 5.1795044 -15.967804 6.7819824 -24.037537zm-8.584839 -13.220673l-48.33264 125.85379l17.684753 0l13.821594 -38.1167l52.625122 0l14.680054 38.1167l18.972534 0l-51.509094 -125.85379z" fill-rule="evenodd"/><path fill="#000000" fill-opacity="0.0" d="m800.5528 296.00262l0 125.85379l16.654602 0l0 -125.85379z" fill-rule="evenodd"/><path stroke="#6d9eeb" stroke-width="3.0" stroke-linejoin="round" stroke-linecap="butt" d="m142.78214 296.00262l0 125.85379l16.05365 0l0 -107.138824l36.399734 107.138824l15.023483 0l36.571426 -105.33603l0 105.33603l16.053665 0l0 -125.85379l-22.406448 0l-30.132797 87.5654c-3.03331 8.871002 -5.2653656 15.595795 -6.6961823 20.174377c-1.2591095 -4.1207275 -3.2622375 -10.330414 -6.009384 -18.62909l-29.789413 -89.11069z" fill-rule="evenodd"/><path stroke="#6d9eeb" stroke-width="3.0" stroke-linejoin="round" stroke-linecap="butt" d="m290.0122 296.00262l0 72.71362c0 13.335114 1.602478 23.856323 4.807495 31.563599c3.205017 7.688202 8.556244 13.564056 16.05365 17.627563c7.4974365 4.0634766 17.141083 6.095215 28.930939 6.095215c12.13324 0 21.929504 -2.327423 29.388763 -6.9823303c7.478363 -4.6739807 12.648346 -10.731049 15.509949 -18.171234c2.8616333 -7.440216 4.2924194 -17.484467 4.2924194 -30.132812l0 -72.71362l-16.654572 0l0 72.62778c0 15.796112 -2.604065 26.46994 -7.8122253 32.021454c-5.20813 5.551544 -13.936066 8.327301 -26.183777 8.327301c-7.154022 0 -13.21109 -1.4021912 -18.171234 -4.2065735c-4.94104 -2.8043823 -8.43222 -6.791565 -10.473511 -11.961548c-2.0222168 -5.1890564 -3.0333252 -13.249268 -3.0333252 -24.180634l0 -72.62778z" fill-rule="evenodd"/><path stroke="#6d9eeb" stroke-width="3.0" stroke-linejoin="round" stroke-linecap="butt" d="m416.20938 296.00262l0 125.85379l16.05368 0l0 -107.138824l36.39972 107.138824l15.023468 0l36.57144 -105.33603l0 105.33603l16.05365 0l0 -125.85379l-22.406433 0l-30.132812 87.5654c-3.0332947 8.871002 -5.2653503 15.595795 -6.696167 20.174377c-1.2590942 -4.1207275 -3.2622375 -10.330414 -6.0093994 -18.62909l-29.789398 -89.11069z" fill-rule="evenodd"/><path stroke="#6d9eeb" stroke-width="3.0" stroke-linejoin="round" stroke-linecap="butt" d="m604.3033 310.8544c9.042725 0 15.424133 0.59140015 19.144226 1.7742004c3.7200928 1.1637268 6.581726 3.338562 8.584839 6.524475c2.0031128 3.16687 3.0046997 6.839264 3.0046997 11.017212c0 4.406891 -1.0778809 8.069763 -3.2336426 10.988617c-2.1366577 2.9188538 -5.322571 5.0078125 -9.5578 6.2669373c-3.204956 0.9729309 -8.498962 1.4594116 -15.881958 1.4594116l-27.213928 0l0 -38.030853zm3.9490356 52.88263c8.012512 0 14.145935 0.7058716 18.400208 2.1176147c4.2733154 1.3926392 7.6118774 3.8250122 10.015625 7.297119c2.4037476 3.453003 3.6056519 7.5260315 3.6056519 12.219086c0 4.006256 -0.829895 7.545105 -2.489624 10.616577c-1.659729 3.0523987 -3.7773438 5.3798523 -6.352783 6.9823303c-2.5754395 1.6025085 -5.7804565 2.7471619 -9.61499 3.43396c-2.1748657 0.40060425 -5.9521484 0.60092163 -11.332031 0.60092163l-31.334656 0l0 -43.26761zm-45.757202 -67.734406l0 125.85379l47.989258 0c8.012512 0 14.775513 -0.6963196 20.28888 -2.0889587c5.5324707 -1.4117432 10.130127 -3.4911804 13.792969 -6.2383423c3.6628418 -2.7471313 6.734314 -6.648468 9.2144165 -11.7039795c2.4991455 -5.0746155 3.7487183 -10.559357 3.7487183 -16.454285c0 -7.3257446 -2.0508423 -13.678528 -6.152466 -19.05835c-4.0825806 -5.3798523 -9.92981 -9.185791 -17.541748 -11.417847c5.8949585 -2.9188538 10.301819 -6.753418 13.220703 -11.503693c2.9188232 -4.7502747 4.378235 -9.815338 4.378235 -15.19516c0 -5.780487 -1.6502075 -11.312927 -4.9505615 -16.597382c-3.281311 -5.303528 -7.831299 -9.223938 -13.649902 -11.76123c-5.7995605 -2.556366 -13.506836 -3.8345642 -23.121887 -3.8345642z" fill-rule="evenodd"/><path stroke="#6d9eeb" stroke-width="3.0" stroke-linejoin="round" stroke-linecap="butt" d="m723.54675 309.2233c1.9459229 6.8106384 4.921997 15.509949 8.928284 26.0979l13.134766 34.85446l-42.666626 0l13.821594 -36.914825c2.9188232 -7.9552917 5.1795044 -15.967804 6.7819824 -24.037537zm-8.584839 -13.220673l-48.33264 125.85379l17.684753 0l13.821594 -38.1167l52.625122 0l14.680054 38.1167l18.972534 0l-51.509094 -125.85379z" fill-rule="evenodd"/><path stroke="#6d9eeb" stroke-width="3.0" stroke-linejoin="round" stroke-linecap="butt" d="m800.5528 296.00262l0 125.85379l16.654602 0l0 -125.85379z" fill-rule="evenodd"/></g></svg>
