<svg version="1.1" viewBox="0.0 0.0 1231.5223097112862 754.6929133858267" fill="white" stroke="none" stroke-linecap="square" stroke-miterlimit="10" xmlns:xlink="http://www.w3.org/1999/xlink" xmlns="http://www.w3.org/2000/svg"><clipPath id="p.0"><path d="m0 0l1231.5223 0l0 754.69293l-1231.5223 0l0 -754.69293z" clip-rule="nonzero"/></clipPath><g clip-path="url(#p.0)"><path fill="#000000" fill-opacity="0.0" d="m0 0l1231.5223 0l0 754.69293l-1231.5223 0z" fill-rule="evenodd"/><path fill="#000000" fill-opacity="0.0" d="m123.96301 329.29196c9.042709 0 15.424103 0.59140015 19.14421 1.7742004c3.7200928 1.1637268 6.581711 3.3385315 8.584839 6.524475c2.003128 3.1668396 3.0046997 6.839264 3.0046997 11.017212c0 4.406891 -1.0778961 8.069763 -3.2336273 10.988586c-2.1366882 2.9188538 -5.3226013 5.007843 -9.5578 6.2669373c-3.2050018 0.9729614 -8.498993 1.4594421 -15.881958 1.4594421l-27.213951 0l0 -38.030853zm3.949028 52.88263c8.01252 0 14.145943 0.7058716 18.400185 2.1175842c4.2733307 1.3926697 7.6118927 3.8250427 10.0156555 7.297119c2.4037476 3.453003 3.6056213 7.526062 3.6056213 12.219086c0 4.0062866 -0.8298645 7.5451355 -2.4895935 10.616608c-1.6597443 3.0523682 -3.7773285 5.379822 -6.352783 6.9823303c-2.5754547 1.6025085 -5.780472 2.7471619 -9.615036 3.4339294c-2.17482 0.40063477 -5.9521484 0.60095215 -11.331985 0.60095215l-31.334679 0l0 -43.26761zm-45.75721 -67.734406l0 125.85379l47.989273 0c8.012512 0 14.775482 -0.6963196 20.288849 -2.0889893c5.53244 -1.4117126 10.130112 -3.49115 13.792984 -6.238312c3.662857 -2.7471313 6.734314 -6.6484985 9.214386 -11.70401c2.4991455 -5.074585 3.7487183 -10.559357 3.7487183 -16.454285c0 -7.325714 -2.050827 -13.678497 -6.152466 -19.05835c-4.0825806 -5.379822 -9.92981 -9.1857605 -17.541702 -11.417847c5.894928 -2.9188232 10.301819 -6.7533875 13.220657 -11.503662c2.9188538 -4.750305 4.3782806 -9.815338 4.3782806 -15.19519c0 -5.7804565 -1.6502075 -11.312897 -4.950592 -16.597351c-3.2813263 -5.303528 -7.831299 -9.223938 -13.649902 -11.76123c-5.79953 -2.5563965 -13.506821 -3.8345642 -23.121857 -3.8345642z" fill-rule="evenodd"/><path fill="#000000" fill-opacity="0.0" d="m200.45396 314.4402l0 125.85379l93.9182 0l0 -14.851776l-77.263596 0l0 -42.83838l69.62309 0l0 -14.76593l-69.62309 0l0 -38.54593l74.34474 0l0 -14.851776z" fill-rule="evenodd"/><path fill="#000000" fill-opacity="0.0" d="m317.20782 314.4402l0 125.85379l15.967834 0l0 -98.8974l66.10327 98.8974l17.083862 0l0 -125.85379l-15.967834 0l0 98.81152l-66.10327 -98.81152z" fill-rule="evenodd"/><path fill="#000000" fill-opacity="0.0" d="m503.15555 312.29398c-12.5338745 0 -23.608337 2.5754395 -33.22336 7.726349c-9.615021 5.1509094 -16.988434 13.039429 -22.12027 23.665558c-5.112732 10.607056 -7.6691284 22.034424 -7.6691284 34.282135c0 12.362183 2.57547 23.551086 7.726349 33.566742c5.1509094 10.0156555 12.772369 17.675232 22.864319 22.97876c10.111023 5.284424 21.347626 7.9266663 33.70981 7.9266663c9.157196 0 18.085419 -1.6406555 26.784698 -4.9219666c8.699341 -3.300415 17.141113 -8.21283 25.325317 -14.737335l0 -46.701538l-53.31189 0.08584595l0 14.76593l37.00067 0l0 23.436615c-3.5484009 3.1477966 -8.756531 6.114319 -15.62439 8.899628c-6.86792 2.7662354 -13.907471 4.149353 -21.118744 4.149353c-8.298676 0 -16.139496 -1.8314514 -23.52246 -5.494293c-7.382965 -3.6628723 -13.010803 -9.271637 -16.883514 -16.826294c-3.8536377 -7.5546875 -5.780487 -16.940765 -5.780487 -28.158295c0 -9.099945 1.6025085 -17.541687 4.8075256 -25.325287c1.8886719 -4.5213623 4.530884 -8.670685 7.9266663 -12.448029c3.414856 -3.7773438 7.8980713 -6.8201904 13.449585 -9.12854c5.551544 -2.3274536 12.13324 -3.4911804 19.745148 -3.4911804c6.352783 0 12.13324 1.1065063 17.34137 3.3194885c5.20813 2.1939087 9.2144165 5.122284 12.018799 8.785156c2.8043823 3.6628418 5.150879 8.69928 7.039551 15.109314l15.023499 -4.1207275c-2.1748047 -8.470367 -5.3512573 -15.338257 -9.529175 -20.603638c-4.1779785 -5.2653503 -9.948914 -9.367004 -17.312805 -12.304932c-7.3447876 -2.9570007 -15.567139 -4.435486 -24.667084 -4.435486z" fill-rule="evenodd"/><path fill="#000000" fill-opacity="0.0" d="m624.20184 327.66083c1.9458618 6.8106384 4.921997 15.509949 8.928223 26.09793l13.134827 34.85446l-42.666687 0l13.821594 -36.914825c2.9188843 -7.9552917 5.1795044 -15.967804 6.7820435 -24.037567zm-8.584839 -13.220642l-48.332703 125.85379l17.684814 0l13.821594 -38.1167l52.62506 0l14.680115 38.1167l18.972473 0l-51.509033 -125.85379z" fill-rule="evenodd"/><path fill="#000000" fill-opacity="0.0" d="m697.6881 314.4402l0 125.85379l78.637146 0l0 -14.851776l-61.982544 0l0 -111.002014z" fill-rule="evenodd"/><path fill="#000000" fill-opacity="0.0" d="m796.4138 314.4402l0 72.71362c0 13.335114 1.602478 23.856323 4.807495 31.563599c3.205017 7.688202 8.556213 13.564056 16.05365 17.627533c7.4974365 4.063507 17.141052 6.0952454 28.930908 6.0952454c12.13324 0 21.929504 -2.3274536 29.388794 -6.9823303c7.4783325 -4.6739807 12.648315 -10.731049 15.509949 -18.171265c2.8616333 -7.4401855 4.2924194 -17.484467 4.2924194 -30.132782l0 -72.71362l-16.654602 0l0 72.62778c0 15.796082 -2.604065 26.46991 -7.812195 32.021454c-5.20813 5.5515137 -13.936096 8.327301 -26.183777 8.327301c-7.1540527 0 -13.211121 -1.4021912 -18.171265 -4.2065735c-4.94104 -2.8043823 -8.43219 -6.791565 -10.473511 -11.961548c-2.0222168 -5.189087 -3.0333252 -13.249268 -3.0333252 -24.180634l0 -72.62778z" fill-rule="evenodd"/><path fill="#000000" fill-opacity="0.0" d="m979.8719 328.34763c9.328857 0 16.149048 1.9172668 20.460571 5.751831c4.3305664 3.8345642 6.4958496 8.727936 6.4958496 14.680084c0 4.063507 -1.1160278 7.831299 -3.3480835 11.303375c-2.2320557 3.4530334 -5.4943237 5.9712524 -9.786743 7.554657c-4.2924194 1.5643616 -10.244568 2.346527 -17.856445 2.346527l-35.79883 0l0 -41.636475zm-56.48828 -13.90744l0 125.85379l16.654602 0l0 -55.88733l19.315918 0c4.2924194 0 7.3829346 0.20031738 9.271606 0.60095215c2.5754395 0.6295471 5.1032104 1.745575 7.583313 3.3480835c2.4990845 1.6025085 5.322571 4.406891 8.470337 8.413147c3.1478271 4.006256 7.1540527 9.786713 12.018799 17.34137l16.654602 26.183777l20.947021 0l-21.891357 -34.25351c-4.3496704 -6.6961975 -8.956848 -12.276337 -13.821594 -16.740448c-2.2893066 -2.0603638 -5.63739 -4.149353 -10.0442505 -6.2669373c12.075989 -1.6597595 21.004211 -5.551544 26.784668 -11.6753845c5.7804565 -6.123871 8.670715 -13.649902 8.670715 -22.578156c0 -6.92511 -1.7456055 -13.249268 -5.2367554 -18.972504c-3.49115 -5.723236 -8.155579 -9.710419 -13.993286 -11.961548c-5.8377075 -2.2702026 -14.365295 -3.405304 -25.582825 -3.405304z" fill-rule="evenodd"/><path fill="#000000" fill-opacity="0.0" d="m1050.3535 314.4402l0 72.71362c0 13.335114 1.602417 23.856323 4.807495 31.563599c3.204956 7.688202 8.556152 13.564056 16.053589 17.627533c7.4974365 4.063507 17.141113 6.0952454 28.930908 6.0952454c12.133301 0 21.929565 -2.3274536 29.388794 -6.9823303c7.4783936 -4.6739807 12.648315 -10.731049 15.51001 -18.171265c2.8615723 -7.4401855 4.2923584 -17.484467 4.2923584 -30.132782l0 -72.71362l-16.654541 0l0 72.62778c0 15.796082 -2.604126 26.46991 -7.812256 32.021454c-5.20813 5.5515137 -13.936035 8.327301 -26.183716 8.327301c-7.1540527 0 -13.211182 -1.4021912 -18.171265 -4.2065735c-4.94104 -2.8043823 -8.432251 -6.791565 -10.473511 -11.961548c-2.0222168 -5.189087 -3.0333252 -13.249268 -3.0333252 -24.180634l0 -72.62778z" fill-rule="evenodd"/><path stroke="#990000" stroke-width="3.0" stroke-linejoin="round" stroke-linecap="butt" d="m123.96301 329.29196c9.042709 0 15.424103 0.59140015 19.14421 1.7742004c3.7200928 1.1637268 6.581711 3.3385315 8.584839 6.524475c2.003128 3.1668396 3.0046997 6.839264 3.0046997 11.017212c0 4.406891 -1.0778961 8.069763 -3.2336273 10.988586c-2.1366882 2.9188538 -5.3226013 5.007843 -9.5578 6.2669373c-3.2050018 0.9729614 -8.498993 1.4594421 -15.881958 1.4594421l-27.213951 0l0 -38.030853zm3.949028 52.88263c8.01252 0 14.145943 0.7058716 18.400185 2.1175842c4.2733307 1.3926697 7.6118927 3.8250427 10.0156555 7.297119c2.4037476 3.453003 3.6056213 7.526062 3.6056213 12.219086c0 4.0062866 -0.8298645 7.5451355 -2.4895935 10.616608c-1.6597443 3.0523682 -3.7773285 5.379822 -6.352783 6.9823303c-2.5754547 1.6025085 -5.780472 2.7471619 -9.615036 3.4339294c-2.17482 0.40063477 -5.9521484 0.60095215 -11.331985 0.60095215l-31.334679 0l0 -43.26761zm-45.75721 -67.734406l0 125.85379l47.989273 0c8.012512 0 14.775482 -0.6963196 20.288849 -2.0889893c5.53244 -1.4117126 10.130112 -3.49115 13.792984 -6.238312c3.662857 -2.7471313 6.734314 -6.6484985 9.214386 -11.70401c2.4991455 -5.074585 3.7487183 -10.559357 3.7487183 -16.454285c0 -7.325714 -2.050827 -13.678497 -6.152466 -19.05835c-4.0825806 -5.379822 -9.92981 -9.1857605 -17.541702 -11.417847c5.894928 -2.9188232 10.301819 -6.7533875 13.220657 -11.503662c2.9188538 -4.750305 4.3782806 -9.815338 4.3782806 -15.19519c0 -5.7804565 -1.6502075 -11.312897 -4.950592 -16.597351c-3.2813263 -5.303528 -7.831299 -9.223938 -13.649902 -11.76123c-5.79953 -2.5563965 -13.506821 -3.8345642 -23.121857 -3.8345642z" fill-rule="evenodd"/><path stroke="#990000" stroke-width="3.0" stroke-linejoin="round" stroke-linecap="butt" d="m200.45396 314.4402l0 125.85379l93.9182 0l0 -14.851776l-77.263596 0l0 -42.83838l69.62309 0l0 -14.76593l-69.62309 0l0 -38.54593l74.34474 0l0 -14.851776z" fill-rule="evenodd"/><path stroke="#990000" stroke-width="3.0" stroke-linejoin="round" stroke-linecap="butt" d="m317.20782 314.4402l0 125.85379l15.967834 0l0 -98.8974l66.10327 98.8974l17.083862 0l0 -125.85379l-15.967834 0l0 98.81152l-66.10327 -98.81152z" fill-rule="evenodd"/><path stroke="#990000" stroke-width="3.0" stroke-linejoin="round" stroke-linecap="butt" d="m503.15555 312.29398c-12.5338745 0 -23.608337 2.5754395 -33.22336 7.726349c-9.615021 5.1509094 -16.988434 13.039429 -22.12027 23.665558c-5.112732 10.607056 -7.6691284 22.034424 -7.6691284 34.282135c0 12.362183 2.57547 23.551086 7.726349 33.566742c5.1509094 10.0156555 12.772369 17.675232 22.864319 22.97876c10.111023 5.284424 21.347626 7.9266663 33.70981 7.9266663c9.157196 0 18.085419 -1.6406555 26.784698 -4.9219666c8.699341 -3.300415 17.141113 -8.21283 25.325317 -14.737335l0 -46.701538l-53.31189 0.08584595l0 14.76593l37.00067 0l0 23.436615c-3.5484009 3.1477966 -8.756531 6.114319 -15.62439 8.899628c-6.86792 2.7662354 -13.907471 4.149353 -21.118744 4.149353c-8.298676 0 -16.139496 -1.8314514 -23.52246 -5.494293c-7.382965 -3.6628723 -13.010803 -9.271637 -16.883514 -16.826294c-3.8536377 -7.5546875 -5.780487 -16.940765 -5.780487 -28.158295c0 -9.099945 1.6025085 -17.541687 4.8075256 -25.325287c1.8886719 -4.5213623 4.530884 -8.670685 7.9266663 -12.448029c3.414856 -3.7773438 7.8980713 -6.8201904 13.449585 -9.12854c5.551544 -2.3274536 12.13324 -3.4911804 19.745148 -3.4911804c6.352783 0 12.13324 1.1065063 17.34137 3.3194885c5.20813 2.1939087 9.2144165 5.122284 12.018799 8.785156c2.8043823 3.6628418 5.150879 8.69928 7.039551 15.109314l15.023499 -4.1207275c-2.1748047 -8.470367 -5.3512573 -15.338257 -9.529175 -20.603638c-4.1779785 -5.2653503 -9.948914 -9.367004 -17.312805 -12.304932c-7.3447876 -2.9570007 -15.567139 -4.435486 -24.667084 -4.435486z" fill-rule="evenodd"/><path stroke="#990000" stroke-width="3.0" stroke-linejoin="round" stroke-linecap="butt" d="m624.20184 327.66083c1.9458618 6.8106384 4.921997 15.509949 8.928223 26.09793l13.134827 34.85446l-42.666687 0l13.821594 -36.914825c2.9188843 -7.9552917 5.1795044 -15.967804 6.7820435 -24.037567zm-8.584839 -13.220642l-48.332703 125.85379l17.684814 0l13.821594 -38.1167l52.62506 0l14.680115 38.1167l18.972473 0l-51.509033 -125.85379z" fill-rule="evenodd"/><path stroke="#990000" stroke-width="3.0" stroke-linejoin="round" stroke-linecap="butt" d="m697.6881 314.4402l0 125.85379l78.637146 0l0 -14.851776l-61.982544 0l0 -111.002014z" fill-rule="evenodd"/><path stroke="#990000" stroke-width="3.0" stroke-linejoin="round" stroke-linecap="butt" d="m796.4138 314.4402l0 72.71362c0 13.335114 1.602478 23.856323 4.807495 31.563599c3.205017 7.688202 8.556213 13.564056 16.05365 17.627533c7.4974365 4.063507 17.141052 6.0952454 28.930908 6.0952454c12.13324 0 21.929504 -2.3274536 29.388794 -6.9823303c7.4783325 -4.6739807 12.648315 -10.731049 15.509949 -18.171265c2.8616333 -7.4401855 4.2924194 -17.484467 4.2924194 -30.132782l0 -72.71362l-16.654602 0l0 72.62778c0 15.796082 -2.604065 26.46991 -7.812195 32.021454c-5.20813 5.5515137 -13.936096 8.327301 -26.183777 8.327301c-7.1540527 0 -13.211121 -1.4021912 -18.171265 -4.2065735c-4.94104 -2.8043823 -8.43219 -6.791565 -10.473511 -11.961548c-2.0222168 -5.189087 -3.0333252 -13.249268 -3.0333252 -24.180634l0 -72.62778z" fill-rule="evenodd"/><path stroke="#990000" stroke-width="3.0" stroke-linejoin="round" stroke-linecap="butt" d="m979.8719 328.34763c9.328857 0 16.149048 1.9172668 20.460571 5.751831c4.3305664 3.8345642 6.4958496 8.727936 6.4958496 14.680084c0 4.063507 -1.1160278 7.831299 -3.3480835 11.303375c-2.2320557 3.4530334 -5.4943237 5.9712524 -9.786743 7.554657c-4.2924194 1.5643616 -10.244568 2.346527 -17.856445 2.346527l-35.79883 0l0 -41.636475zm-56.48828 -13.90744l0 125.85379l16.654602 0l0 -55.88733l19.315918 0c4.2924194 0 7.3829346 0.20031738 9.271606 0.60095215c2.5754395 0.6295471 5.1032104 1.745575 7.583313 3.3480835c2.4990845 1.6025085 5.322571 4.406891 8.470337 8.413147c3.1478271 4.006256 7.1540527 9.786713 12.018799 17.34137l16.654602 26.183777l20.947021 0l-21.891357 -34.25351c-4.3496704 -6.6961975 -8.956848 -12.276337 -13.821594 -16.740448c-2.2893066 -2.0603638 -5.63739 -4.149353 -10.0442505 -6.2669373c12.075989 -1.6597595 21.004211 -5.551544 26.784668 -11.6753845c5.7804565 -6.123871 8.670715 -13.649902 8.670715 -22.578156c0 -6.92511 -1.7456055 -13.249268 -5.2367554 -18.972504c-3.49115 -5.723236 -8.155579 -9.710419 -13.993286 -11.961548c-5.8377075 -2.2702026 -14.365295 -3.405304 -25.582825 -3.405304z" fill-rule="evenodd"/><path stroke="#990000" stroke-width="3.0" stroke-linejoin="round" stroke-linecap="butt" d="m1050.3535 314.4402l0 72.71362c0 13.335114 1.602417 23.856323 4.807495 31.563599c3.204956 7.688202 8.556152 13.564056 16.053589 17.627533c7.4974365 4.063507 17.141113 6.0952454 28.930908 6.0952454c12.133301 0 21.929565 -2.3274536 29.388794 -6.9823303c7.4783936 -4.6739807 12.648315 -10.731049 15.51001 -18.171265c2.8615723 -7.4401855 4.2923584 -17.484467 4.2923584 -30.132782l0 -72.71362l-16.654541 0l0 72.62778c0 15.796082 -2.604126 26.46991 -7.812256 32.021454c-5.20813 5.5515137 -13.936035 8.327301 -26.183716 8.327301c-7.1540527 0 -13.211182 -1.4021912 -18.171265 -4.2065735c-4.94104 -2.8043823 -8.432251 -6.791565 -10.473511 -11.961548c-2.0222168 -5.189087 -3.0333252 -13.249268 -3.0333252 -24.180634l0 -72.62778z" fill-rule="evenodd"/></g></svg>
