<svg version="1.1" viewBox="0.0 0.0 1231.5223097112862 754.6929133858267" fill="white" stroke="none" stroke-linecap="square" stroke-miterlimit="10" xmlns:xlink="http://www.w3.org/1999/xlink" xmlns="http://www.w3.org/2000/svg"><clipPath id="p.0"><path d="m0 0l1231.5223 0l0 754.69293l-1231.5223 0l0 -754.69293z" clip-rule="nonzero"/></clipPath><g clip-path="url(#p.0)"><path fill="#000000" fill-opacity="0.0" d="m0 0l1231.5223 0l0 754.69293l-1231.5223 0z" fill-rule="evenodd"/><path fill="#000000" fill-opacity="0.0" d="m163.6969 328.34763c9.328873 0 16.149033 1.9172668 20.46054 5.751831c4.3305817 3.8345642 6.495865 8.727936 6.495865 14.680084c0 4.063507 -1.1160278 7.831299 -3.3480835 11.303375c-2.2320557 3.4530334 -5.494293 5.9712524 -9.786713 7.554657c-4.2924347 1.5643616 -10.244583 2.346527 -17.856476 2.346527l-35.798805 0l0 -41.636475zm113.31995 -0.6867981c1.9458923 6.8106384 4.9219666 15.509949 8.928223 26.09793l13.134827 34.85446l-42.666687 0l13.821594 -36.914825c2.9188538 -7.9552917 5.179535 -15.967804 6.7820435 -24.037567zm-169.80821 -13.220642l0 125.85379l16.654594 0l0 -55.88733l19.315895 0c4.2924347 0 7.382965 0.20031738 9.271637 0.60095215c2.5754547 0.6295471 5.103195 1.745575 7.5832825 3.3480835c2.4991302 1.6025085 5.3226013 4.406891 8.470367 8.413147c3.1477814 4.006256 7.1540375 9.786713 12.018784 17.34137l16.654602 26.183777l20.947021 0l-21.891357 -34.25351c-4.349655 -6.6961975 -8.956848 -12.276337 -13.821594 -16.740448c-2.2892914 -2.0603638 -5.63739 -4.149353 -10.044266 -6.2669373c12.076004 -1.6597595 21.004242 -5.551544 26.784714 -11.6753845c5.7804565 -6.123871 8.670685 -13.649902 8.670685 -22.578156c0 -6.92511 -1.7455902 -13.249268 -5.2367554 -18.972504c-3.4911652 -5.723236 -8.155594 -9.710419 -13.993286 -11.961548c-5.8377075 -2.2702026 -14.365311 -3.405304 -25.58284 -3.405304zm161.22337 0l-48.332687 125.85379l17.684784 0l13.821594 -38.1167l52.625076 0l14.680084 38.1167l18.972504 0l-51.509033 -125.85379z" fill-rule="evenodd"/><path fill="#000000" fill-opacity="0.0" d="m395.23013 314.4402l0 86.70691c0 7.211273 -0.57232666 12.467102 -1.71698 15.767487c-1.1446533 3.281311 -3.233612 5.885376 -6.2669373 7.8122253c-3.0332947 1.9077148 -6.6389465 2.8616028 -10.816895 2.8616028c-5.665985 0 -10.101501 -1.7742004 -13.306519 -5.3226013c-3.2049866 -3.5484009 -5.0078125 -10.130127 -5.4084473 -19.745148l-15.023468 2.0603638c-0.22894287 12.5338745 2.5849915 21.977203 8.441772 28.329987c5.875824 6.352783 14.33667 9.529175 25.382507 9.529175c7.4401855 0 13.916992 -1.5166626 19.430359 -4.5499573c5.5324707 -3.0333252 9.567352 -7.440216 12.104645 -13.220673c2.556366 -5.7804565 3.8345642 -13.936066 3.8345642 -24.466797l0 -85.76257z" fill-rule="evenodd"/><path fill="#000000" fill-opacity="0.0" d="m482.19458 327.66083c1.9459229 6.8106384 4.921997 15.509949 8.928253 26.09793l13.134796 34.85446l-42.666656 0l13.821594 -36.914825c2.9188538 -7.9552917 5.1795044 -15.967804 6.782013 -24.037567zm-8.584839 -13.220642l-48.332672 125.85379l17.684784 0l13.821594 -38.1167l52.62509 0l14.680084 38.1167l18.972534 0l-51.509094 -125.85379z" fill-rule="evenodd"/><path fill="#000000" fill-opacity="0.0" d="m599.80695 312.29398c-8.470398 0 -16.168152 1.4307861 -23.0932 4.2924194c-6.92511 2.8616028 -12.190491 7.0586243 -15.796143 12.591095c-3.6056519 5.5133667 -5.4084473 11.446442 -5.4084473 17.799225c0 5.780487 1.4689331 11.00769 4.4068604 15.681671c2.9570312 4.6548767 7.4402466 8.556213 13.449585 11.7039795c4.6358643 2.4609985 12.734192 5.084137 24.295105 7.869446c11.560974 2.7662354 19.029785 4.8075256 22.406494 6.123871c5.26532 2.0031128 9.042664 4.483185 11.33197 7.4401855c2.2893066 2.9379272 3.43396 6.3814087 3.43396 10.330444c0 3.8917847 -1.1923828 7.4878845 -3.5770264 10.788269c-2.3656006 3.281311 -5.980774 5.8663025 -10.84552 7.7549744c-4.864746 1.8886719 -10.473511 2.8330078 -16.826294 2.8330078c-7.1540527 0 -13.592712 -1.2400513 -19.315918 -3.7200928c-5.7232056 -2.4991455 -9.948853 -5.761383 -12.676941 -9.786743c-2.7089844 -4.044403 -4.435486 -9.214386 -5.1795044 -15.509949l-15.710266 1.3735962c0.22888184 8.413147 2.52771 15.958252 6.8964844 22.635345c4.3878174 6.65802 10.425781 11.64679 18.114014 14.966248c7.7072754 3.3194885 17.255554 4.9792175 28.644775 4.9792175c8.985474 0 17.064758 -1.6406555 24.237854 -4.9219666c7.1921997 -3.300415 12.705566 -7.9076233 16.5401 -13.821594c3.8345947 -5.9331055 5.751892 -12.247711 5.751892 -18.943909c0 -6.7533875 -1.7456055 -12.715088 -5.2367554 -17.88507c-3.491211 -5.1890564 -8.899658 -9.471954 -16.225342 -12.848663c-5.036499 -2.2892761 -14.327148 -4.9601135 -27.872131 -8.012512c-13.52594 -3.0714722 -21.891357 -6.06662 -25.096375 -8.985474c-3.262268 -2.9188538 -4.8933716 -6.6389465 -4.8933716 -11.160309c0 -5.20813 2.2988281 -9.653168 6.8964844 -13.335114c4.6167603 -3.7010193 11.961548 -5.551544 22.034424 -5.551544c9.672302 0 16.978943 2.0317688 21.919983 6.0952454c4.960144 4.063507 7.869446 10.0729065 8.727905 18.028168l15.967834 -1.2018738c-0.28619385 -7.382965 -2.3465576 -13.993286 -6.1810913 -19.830994c-3.8345947 -5.837677 -9.319336 -10.25412 -16.454285 -13.249268c-7.115906 -3.0142212 -15.338257 -4.521332 -24.667114 -4.521332z" fill-rule="evenodd"/><path fill="#000000" fill-opacity="0.0" d="m664.1933 314.4402l0 14.851776l41.464783 0l0 111.002014l16.654602 0l0 -111.002014l41.636475 0l0 -14.851776z" fill-rule="evenodd"/><path fill="#000000" fill-opacity="0.0" d="m781.5481 314.4402l0 125.85379l16.654602 0l0 -59.32126l65.416504 0l0 59.32126l16.654602 0l0 -125.85379l-16.654602 0l0 51.680756l-65.416504 0l0 -51.680756z" fill-rule="evenodd"/><path fill="#000000" fill-opacity="0.0" d="m951.09875 327.66083c1.9458618 6.8106384 4.921936 15.509949 8.928223 26.09793l13.134827 34.85446l-42.666687 0l13.821594 -36.914825c2.9188232 -7.9552917 5.1795044 -15.967804 6.7820435 -24.037567zm-8.584839 -13.220642l-48.332703 125.85379l17.684814 0l13.821594 -38.1167l52.62506 0l14.680054 38.1167l18.972534 0l-51.509033 -125.85379z" fill-rule="evenodd"/><path fill="#000000" fill-opacity="0.0" d="m1025.1001 314.4402l0 125.85379l15.967773 0l0 -98.8974l66.10327 98.8974l17.083862 0l0 -125.85379l-15.967773 0l0 98.81152l-66.10327 -98.81152z" fill-rule="evenodd"/><path stroke="#4a86e8" stroke-width="3.0" stroke-linejoin="round" stroke-linecap="butt" d="m163.6969 328.34763c9.328873 0 16.149033 1.9172668 20.46054 5.751831c4.3305817 3.8345642 6.495865 8.727936 6.495865 14.680084c0 4.063507 -1.1160278 7.831299 -3.3480835 11.303375c-2.2320557 3.4530334 -5.494293 5.9712524 -9.786713 7.554657c-4.2924347 1.5643616 -10.244583 2.346527 -17.856476 2.346527l-35.798805 0l0 -41.636475zm113.31995 -0.6867981c1.9458923 6.8106384 4.9219666 15.509949 8.928223 26.09793l13.134827 34.85446l-42.666687 0l13.821594 -36.914825c2.9188538 -7.9552917 5.179535 -15.967804 6.7820435 -24.037567zm-169.80821 -13.220642l0 125.85379l16.654594 0l0 -55.88733l19.315895 0c4.2924347 0 7.382965 0.20031738 9.271637 0.60095215c2.5754547 0.6295471 5.103195 1.745575 7.5832825 3.3480835c2.4991302 1.6025085 5.3226013 4.406891 8.470367 8.413147c3.1477814 4.006256 7.1540375 9.786713 12.018784 17.34137l16.654602 26.183777l20.947021 0l-21.891357 -34.25351c-4.349655 -6.6961975 -8.956848 -12.276337 -13.821594 -16.740448c-2.2892914 -2.0603638 -5.63739 -4.149353 -10.044266 -6.2669373c12.076004 -1.6597595 21.004242 -5.551544 26.784714 -11.6753845c5.7804565 -6.123871 8.670685 -13.649902 8.670685 -22.578156c0 -6.92511 -1.7455902 -13.249268 -5.2367554 -18.972504c-3.4911652 -5.723236 -8.155594 -9.710419 -13.993286 -11.961548c-5.8377075 -2.2702026 -14.365311 -3.405304 -25.58284 -3.405304zm161.22337 0l-48.332687 125.85379l17.684784 0l13.821594 -38.1167l52.625076 0l14.680084 38.1167l18.972504 0l-51.509033 -125.85379z" fill-rule="evenodd"/><path stroke="#4a86e8" stroke-width="3.0" stroke-linejoin="round" stroke-linecap="butt" d="m395.23013 314.4402l0 86.70691c0 7.211273 -0.57232666 12.467102 -1.71698 15.767487c-1.1446533 3.281311 -3.233612 5.885376 -6.2669373 7.8122253c-3.0332947 1.9077148 -6.6389465 2.8616028 -10.816895 2.8616028c-5.665985 0 -10.101501 -1.7742004 -13.306519 -5.3226013c-3.2049866 -3.5484009 -5.0078125 -10.130127 -5.4084473 -19.745148l-15.023468 2.0603638c-0.22894287 12.5338745 2.5849915 21.977203 8.441772 28.329987c5.875824 6.352783 14.33667 9.529175 25.382507 9.529175c7.4401855 0 13.916992 -1.5166626 19.430359 -4.5499573c5.5324707 -3.0333252 9.567352 -7.440216 12.104645 -13.220673c2.556366 -5.7804565 3.8345642 -13.936066 3.8345642 -24.466797l0 -85.76257z" fill-rule="evenodd"/><path stroke="#4a86e8" stroke-width="3.0" stroke-linejoin="round" stroke-linecap="butt" d="m482.19458 327.66083c1.9459229 6.8106384 4.921997 15.509949 8.928253 26.09793l13.134796 34.85446l-42.666656 0l13.821594 -36.914825c2.9188538 -7.9552917 5.1795044 -15.967804 6.782013 -24.037567zm-8.584839 -13.220642l-48.332672 125.85379l17.684784 0l13.821594 -38.1167l52.62509 0l14.680084 38.1167l18.972534 0l-51.509094 -125.85379z" fill-rule="evenodd"/><path stroke="#4a86e8" stroke-width="3.0" stroke-linejoin="round" stroke-linecap="butt" d="m599.80695 312.29398c-8.470398 0 -16.168152 1.4307861 -23.0932 4.2924194c-6.92511 2.8616028 -12.190491 7.0586243 -15.796143 12.591095c-3.6056519 5.5133667 -5.4084473 11.446442 -5.4084473 17.799225c0 5.780487 1.4689331 11.00769 4.4068604 15.681671c2.9570312 4.6548767 7.4402466 8.556213 13.449585 11.7039795c4.6358643 2.4609985 12.734192 5.084137 24.295105 7.869446c11.560974 2.7662354 19.029785 4.8075256 22.406494 6.123871c5.26532 2.0031128 9.042664 4.483185 11.33197 7.4401855c2.2893066 2.9379272 3.43396 6.3814087 3.43396 10.330444c0 3.8917847 -1.1923828 7.4878845 -3.5770264 10.788269c-2.3656006 3.281311 -5.980774 5.8663025 -10.84552 7.7549744c-4.864746 1.8886719 -10.473511 2.8330078 -16.826294 2.8330078c-7.1540527 0 -13.592712 -1.2400513 -19.315918 -3.7200928c-5.7232056 -2.4991455 -9.948853 -5.761383 -12.676941 -9.786743c-2.7089844 -4.044403 -4.435486 -9.214386 -5.1795044 -15.509949l-15.710266 1.3735962c0.22888184 8.413147 2.52771 15.958252 6.8964844 22.635345c4.3878174 6.65802 10.425781 11.64679 18.114014 14.966248c7.7072754 3.3194885 17.255554 4.9792175 28.644775 4.9792175c8.985474 0 17.064758 -1.6406555 24.237854 -4.9219666c7.1921997 -3.300415 12.705566 -7.9076233 16.5401 -13.821594c3.8345947 -5.9331055 5.751892 -12.247711 5.751892 -18.943909c0 -6.7533875 -1.7456055 -12.715088 -5.2367554 -17.88507c-3.491211 -5.1890564 -8.899658 -9.471954 -16.225342 -12.848663c-5.036499 -2.2892761 -14.327148 -4.9601135 -27.872131 -8.012512c-13.52594 -3.0714722 -21.891357 -6.06662 -25.096375 -8.985474c-3.262268 -2.9188538 -4.8933716 -6.6389465 -4.8933716 -11.160309c0 -5.20813 2.2988281 -9.653168 6.8964844 -13.335114c4.6167603 -3.7010193 11.961548 -5.551544 22.034424 -5.551544c9.672302 0 16.978943 2.0317688 21.919983 6.0952454c4.960144 4.063507 7.869446 10.0729065 8.727905 18.028168l15.967834 -1.2018738c-0.28619385 -7.382965 -2.3465576 -13.993286 -6.1810913 -19.830994c-3.8345947 -5.837677 -9.319336 -10.25412 -16.454285 -13.249268c-7.115906 -3.0142212 -15.338257 -4.521332 -24.667114 -4.521332z" fill-rule="evenodd"/><path stroke="#4a86e8" stroke-width="3.0" stroke-linejoin="round" stroke-linecap="butt" d="m664.1933 314.4402l0 14.851776l41.464783 0l0 111.002014l16.654602 0l0 -111.002014l41.636475 0l0 -14.851776z" fill-rule="evenodd"/><path stroke="#4a86e8" stroke-width="3.0" stroke-linejoin="round" stroke-linecap="butt" d="m781.5481 314.4402l0 125.85379l16.654602 0l0 -59.32126l65.416504 0l0 59.32126l16.654602 0l0 -125.85379l-16.654602 0l0 51.680756l-65.416504 0l0 -51.680756z" fill-rule="evenodd"/><path stroke="#4a86e8" stroke-width="3.0" stroke-linejoin="round" stroke-linecap="butt" d="m951.09875 327.66083c1.9458618 6.8106384 4.921936 15.509949 8.928223 26.09793l13.134827 34.85446l-42.666687 0l13.821594 -36.914825c2.9188232 -7.9552917 5.1795044 -15.967804 6.7820435 -24.037567zm-8.584839 -13.220642l-48.332703 125.85379l17.684814 0l13.821594 -38.1167l52.62506 0l14.680054 38.1167l18.972534 0l-51.509033 -125.85379z" fill-rule="evenodd"/><path stroke="#4a86e8" stroke-width="3.0" stroke-linejoin="round" stroke-linecap="butt" d="m1025.1001 314.4402l0 125.85379l15.967773 0l0 -98.8974l66.10327 98.8974l17.083862 0l0 -125.85379l-15.967773 0l0 98.81152l-66.10327 -98.81152z" fill-rule="evenodd"/></g></svg>
