<svg version="1.1" viewBox="0.0 0.0 1231.5223097112862 754.6929133858267" fill="white" stroke="none" stroke-linecap="square" stroke-miterlimit="10" xmlns:xlink="http://www.w3.org/1999/xlink" xmlns="http://www.w3.org/2000/svg"><clipPath id="p.0"><path d="m0 0l1231.5223 0l0 754.69293l-1231.5223 0l0 -754.69293z" clip-rule="nonzero"/></clipPath><g clip-path="url(#p.0)"><path fill="#000000" fill-opacity="0.0" d="m0 0l1231.5223 0l0 754.69293l-1231.5223 0z" fill-rule="evenodd"/><path fill="#000000" fill-opacity="0.0" d="m80.39761 314.4042l0 125.85379l16.654594 0l0 -59.32126l65.41651 0l0 59.32126l16.654587 0l0 -125.85379l-16.654587 0l0 51.680756l-65.41651 0l0 -51.680756z" fill-rule="evenodd"/><path fill="#000000" fill-opacity="0.0" d="m193.80339 314.4042l48.504364 72.54193l0 53.31186l16.654587 0l0 -53.31186l50.221344 -72.54193l-19.401733 0l-24.380981 37.00067c-5.379822 8.241455 -9.958405 15.653015 -13.735733 22.234741c-3.9490356 -7.0968018 -8.21283 -14.1936035 -12.791412 -21.290405l-24.810211 -37.945007z" fill-rule="evenodd"/><path fill="#000000" fill-opacity="0.0" d="m367.21722 329.25598c9.901184 0 17.083832 0.85849 21.547943 2.5754395c6.1810913 2.403778 11.427399 7.1445007 15.738892 14.222229c4.330597 7.058655 6.49588 17.169678 6.49588 30.33313c0 9.500549 -1.1065063 17.589386 -3.3194885 24.26648c-2.1939087 6.65802 -5.265381 11.961548 -9.214386 15.9105835c-2.8043823 2.8043823 -6.572174 4.979187 -11.303375 6.524475c-4.7121277 1.5452576 -11.217529 2.3179016 -19.516235 2.3179016l-26.870544 0l0 -96.15024zm-43.095917 -14.851776l0 125.85379l45.41382 0c7.611908 0 14.346252 -0.71539307 20.203003 -2.1462097c5.8758545 -1.4308167 10.883667 -3.5293274 15.023468 -6.295532c4.158905 -2.7853088 7.983917 -6.591278 11.475098 -11.417847c3.49115 -4.8456726 6.352783 -10.959991 8.584839 -18.342957c2.2320557 -7.382965 3.3480835 -15.8533325 3.3480835 -25.411133c0 -11.217529 -1.6502075 -21.185486 -4.950592 -29.90387c-3.281311 -8.737457 -8.241455 -15.9105835 -14.880402 -21.519348c-5.0936584 -4.34964 -11.246155 -7.3543396 -18.457397 -9.014099c-5.1509094 -1.2018738 -12.61972 -1.8027954 -22.406464 -1.8027954z" fill-rule="evenodd"/><path fill="#000000" fill-opacity="0.0" d="m451.43454 314.4042l0 125.85379l93.91818 0l0 -14.851776l-77.26358 0l0 -42.83838l69.62308 0l0 -14.76593l-69.62308 0l0 -38.54593l74.34476 0l0 -14.851776z" fill-rule="evenodd"/><path fill="#000000" fill-opacity="0.0" d="m625.1059 328.31165c9.328857 0 16.149048 1.9172668 20.460571 5.751831c4.3305664 3.8345642 6.4958496 8.727936 6.4958496 14.680084c0 4.063507 -1.1160278 7.831299 -3.3480835 11.303375c-2.2320557 3.4530334 -5.4943237 5.9712524 -9.786743 7.5546875c-4.2924194 1.564331 -10.244568 2.3464966 -17.856445 2.3464966l-35.79883 0l0 -41.636475zm113.31995 -0.6867981c1.9459229 6.8106384 4.921997 15.509949 8.928223 26.09793l13.134827 34.85446l-42.666687 0l13.821594 -36.914825c2.9188843 -7.9552917 5.1795654 -15.967804 6.7820435 -24.037567zm-169.80817 -13.220642l0 125.85379l16.654541 0l0 -55.88733l19.315918 0c4.2924194 0 7.3829956 0.20031738 9.2716675 0.60095215c2.5754395 0.6295471 5.1032104 1.745575 7.583252 3.3480835c2.4991455 1.6025085 5.322571 4.406891 8.470398 8.413147c3.147766 4.006256 7.1539917 9.786713 12.018738 17.34137l16.654602 26.183777l20.947021 0l-21.891357 -34.25351c-4.3496094 -6.6961975 -8.956848 -12.276337 -13.821594 -16.740448c-2.2893066 -2.0603638 -5.63739 -4.149353 -10.0442505 -6.2669373c12.075989 -1.659729 21.004272 -5.551544 26.784729 -11.6753845c5.7804565 -6.123871 8.670654 -13.649902 8.670654 -22.578156c0 -6.92511 -1.7455444 -13.249268 -5.2367554 -18.972504c-3.49115 -5.7232056 -8.155579 -9.710388 -13.993286 -11.961548c-5.8377075 -2.2702026 -14.365295 -3.405304 -25.582825 -3.405304zm161.22333 0l-48.33264 125.85379l17.684753 0l13.821594 -38.1167l52.625122 0l14.680054 38.1167l18.972473 0l-51.509033 -125.85379z" fill-rule="evenodd"/><path fill="#000000" fill-opacity="0.0" d="m853.7203 329.25598c9.042725 0 15.424133 0.59140015 19.144226 1.7742004c3.7200928 1.1637268 6.581726 3.338562 8.584839 6.524475c2.0031128 3.16687 3.0046997 6.839264 3.0046997 11.017212c0 4.406891 -1.0778809 8.069763 -3.2336426 10.988617c-2.1366577 2.9188232 -5.322571 5.0078125 -9.5578 6.2669373c-3.205017 0.9729309 -8.498962 1.4594116 -15.881958 1.4594116l-27.213928 0l0 -38.030853zm3.9490356 52.88263c8.012512 0 14.145935 0.7058716 18.400208 2.1175842c4.2733154 1.3926697 7.6118774 3.8250427 10.015625 7.297119c2.4037476 3.4530334 3.6056519 7.526062 3.6056519 12.219116c0 4.006256 -0.829895 7.545105 -2.489624 10.616577c-1.659729 3.0523987 -3.7773438 5.379822 -6.352783 6.9823303c-2.5754395 1.6025085 -5.7804565 2.7471619 -9.61499 3.43396c-2.1748657 0.40060425 -5.9522095 0.60092163 -11.332031 0.60092163l-31.334656 0l0 -43.26761zm-45.757202 -67.734406l0 125.85379l47.989258 0c8.012512 0 14.775452 -0.6963196 20.28888 -2.0889587c5.5324097 -1.4117432 10.130127 -3.4911804 13.792969 -6.2383423c3.6628418 -2.7471313 6.734314 -6.648468 9.2144165 -11.7039795c2.4990845 -5.0746155 3.7487183 -10.559357 3.7487183 -16.454285c0 -7.3257446 -2.0508423 -13.678528 -6.152527 -19.05838c-4.0825806 -5.379822 -9.929749 -9.1857605 -17.541687 -11.417816c5.8949585 -2.9188538 10.301819 -6.753418 13.220703 -11.503693c2.9188232 -4.7502747 4.378235 -9.815338 4.378235 -15.19519c0 -5.7804565 -1.6502075 -11.312897 -4.9505615 -16.597351c-3.281372 -5.303528 -7.831299 -9.223938 -13.649902 -11.76123c-5.7995605 -2.5563965 -13.506836 -3.8345642 -23.121887 -3.8345642z" fill-rule="evenodd"/><path fill="#000000" fill-opacity="0.0" d="m972.96375 327.62485c1.9459229 6.8106384 4.921997 15.509949 8.928284 26.09793l13.134766 34.85446l-42.666626 0l13.821594 -36.914825c2.9188232 -7.9552917 5.1795044 -15.967804 6.7819824 -24.037567zm-8.584839 -13.220642l-48.33264 125.85379l17.684753 0l13.821594 -38.1167l52.625122 0l14.680054 38.1167l18.972534 0l-51.509094 -125.85379z" fill-rule="evenodd"/><path fill="#000000" fill-opacity="0.0" d="m1090.2328 329.25598c9.901123 0 17.08374 0.85849 21.547852 2.5754395c6.1811523 2.403778 11.42749 7.1445007 15.738892 14.222229c4.3306885 7.058655 6.4958496 17.169678 6.4958496 30.33313c0 9.500549 -1.1064453 17.589386 -3.319458 24.26648c-2.1938477 6.65802 -5.265381 11.961548 -9.214355 15.9105835c-2.8044434 2.8043823 -6.5721436 4.979187 -11.303345 6.524475c-4.712158 1.5452576 -11.217529 2.3179016 -19.516235 2.3179016l-26.870605 0l0 -96.15024zm-43.095947 -14.851776l0 125.85379l45.41382 0c7.6118164 0 14.346191 -0.71539307 20.203003 -2.1462097c5.8758545 -1.4308167 10.883667 -3.5293274 15.0234375 -6.295532c4.1589355 -2.7853088 7.9838867 -6.591278 11.475098 -11.417847c3.491211 -4.8456726 6.352783 -10.959991 8.584839 -18.342957c2.2320557 -7.382965 3.3480225 -15.8533325 3.3480225 -25.411133c0 -11.217529 -1.6501465 -21.185486 -4.9505615 -29.90387c-3.28125 -8.737457 -8.241455 -15.9105835 -14.880371 -21.519348c-5.093628 -4.34964 -11.246094 -7.3543396 -18.457397 -9.014099c-5.150879 -1.2018738 -12.619751 -1.8027954 -22.406494 -1.8027954z" fill-rule="evenodd"/><path stroke="#e69138" stroke-width="3.0" stroke-linejoin="round" stroke-linecap="butt" d="m80.39761 314.4042l0 125.85379l16.654594 0l0 -59.32126l65.41651 0l0 59.32126l16.654587 0l0 -125.85379l-16.654587 0l0 51.680756l-65.41651 0l0 -51.680756z" fill-rule="evenodd"/><path stroke="#e69138" stroke-width="3.0" stroke-linejoin="round" stroke-linecap="butt" d="m193.80339 314.4042l48.504364 72.54193l0 53.31186l16.654587 0l0 -53.31186l50.221344 -72.54193l-19.401733 0l-24.380981 37.00067c-5.379822 8.241455 -9.958405 15.653015 -13.735733 22.234741c-3.9490356 -7.0968018 -8.21283 -14.1936035 -12.791412 -21.290405l-24.810211 -37.945007z" fill-rule="evenodd"/><path stroke="#e69138" stroke-width="3.0" stroke-linejoin="round" stroke-linecap="butt" d="m367.21722 329.25598c9.901184 0 17.083832 0.85849 21.547943 2.5754395c6.1810913 2.403778 11.427399 7.1445007 15.738892 14.222229c4.330597 7.058655 6.49588 17.169678 6.49588 30.33313c0 9.500549 -1.1065063 17.589386 -3.3194885 24.26648c-2.1939087 6.65802 -5.265381 11.961548 -9.214386 15.9105835c-2.8043823 2.8043823 -6.572174 4.979187 -11.303375 6.524475c-4.7121277 1.5452576 -11.217529 2.3179016 -19.516235 2.3179016l-26.870544 0l0 -96.15024zm-43.095917 -14.851776l0 125.85379l45.41382 0c7.611908 0 14.346252 -0.71539307 20.203003 -2.1462097c5.8758545 -1.4308167 10.883667 -3.5293274 15.023468 -6.295532c4.158905 -2.7853088 7.983917 -6.591278 11.475098 -11.417847c3.49115 -4.8456726 6.352783 -10.959991 8.584839 -18.342957c2.2320557 -7.382965 3.3480835 -15.8533325 3.3480835 -25.411133c0 -11.217529 -1.6502075 -21.185486 -4.950592 -29.90387c-3.281311 -8.737457 -8.241455 -15.9105835 -14.880402 -21.519348c-5.0936584 -4.34964 -11.246155 -7.3543396 -18.457397 -9.014099c-5.1509094 -1.2018738 -12.61972 -1.8027954 -22.406464 -1.8027954z" fill-rule="evenodd"/><path stroke="#e69138" stroke-width="3.0" stroke-linejoin="round" stroke-linecap="butt" d="m451.43454 314.4042l0 125.85379l93.91818 0l0 -14.851776l-77.26358 0l0 -42.83838l69.62308 0l0 -14.76593l-69.62308 0l0 -38.54593l74.34476 0l0 -14.851776z" fill-rule="evenodd"/><path stroke="#e69138" stroke-width="3.0" stroke-linejoin="round" stroke-linecap="butt" d="m625.1059 328.31165c9.328857 0 16.149048 1.9172668 20.460571 5.751831c4.3305664 3.8345642 6.4958496 8.727936 6.4958496 14.680084c0 4.063507 -1.1160278 7.831299 -3.3480835 11.303375c-2.2320557 3.4530334 -5.4943237 5.9712524 -9.786743 7.5546875c-4.2924194 1.564331 -10.244568 2.3464966 -17.856445 2.3464966l-35.79883 0l0 -41.636475zm113.31995 -0.6867981c1.9459229 6.8106384 4.921997 15.509949 8.928223 26.09793l13.134827 34.85446l-42.666687 0l13.821594 -36.914825c2.9188843 -7.9552917 5.1795654 -15.967804 6.7820435 -24.037567zm-169.80817 -13.220642l0 125.85379l16.654541 0l0 -55.88733l19.315918 0c4.2924194 0 7.3829956 0.20031738 9.2716675 0.60095215c2.5754395 0.6295471 5.1032104 1.745575 7.583252 3.3480835c2.4991455 1.6025085 5.322571 4.406891 8.470398 8.413147c3.147766 4.006256 7.1539917 9.786713 12.018738 17.34137l16.654602 26.183777l20.947021 0l-21.891357 -34.25351c-4.3496094 -6.6961975 -8.956848 -12.276337 -13.821594 -16.740448c-2.2893066 -2.0603638 -5.63739 -4.149353 -10.0442505 -6.2669373c12.075989 -1.659729 21.004272 -5.551544 26.784729 -11.6753845c5.7804565 -6.123871 8.670654 -13.649902 8.670654 -22.578156c0 -6.92511 -1.7455444 -13.249268 -5.2367554 -18.972504c-3.49115 -5.7232056 -8.155579 -9.710388 -13.993286 -11.961548c-5.8377075 -2.2702026 -14.365295 -3.405304 -25.582825 -3.405304zm161.22333 0l-48.33264 125.85379l17.684753 0l13.821594 -38.1167l52.625122 0l14.680054 38.1167l18.972473 0l-51.509033 -125.85379z" fill-rule="evenodd"/><path stroke="#e69138" stroke-width="3.0" stroke-linejoin="round" stroke-linecap="butt" d="m853.7203 329.25598c9.042725 0 15.424133 0.59140015 19.144226 1.7742004c3.7200928 1.1637268 6.581726 3.338562 8.584839 6.524475c2.0031128 3.16687 3.0046997 6.839264 3.0046997 11.017212c0 4.406891 -1.0778809 8.069763 -3.2336426 10.988617c-2.1366577 2.9188232 -5.322571 5.0078125 -9.5578 6.2669373c-3.205017 0.9729309 -8.498962 1.4594116 -15.881958 1.4594116l-27.213928 0l0 -38.030853zm3.9490356 52.88263c8.012512 0 14.145935 0.7058716 18.400208 2.1175842c4.2733154 1.3926697 7.6118774 3.8250427 10.015625 7.297119c2.4037476 3.4530334 3.6056519 7.526062 3.6056519 12.219116c0 4.006256 -0.829895 7.545105 -2.489624 10.616577c-1.659729 3.0523987 -3.7773438 5.379822 -6.352783 6.9823303c-2.5754395 1.6025085 -5.7804565 2.7471619 -9.61499 3.43396c-2.1748657 0.40060425 -5.9522095 0.60092163 -11.332031 0.60092163l-31.334656 0l0 -43.26761zm-45.757202 -67.734406l0 125.85379l47.989258 0c8.012512 0 14.775452 -0.6963196 20.28888 -2.0889587c5.5324097 -1.4117432 10.130127 -3.4911804 13.792969 -6.2383423c3.6628418 -2.7471313 6.734314 -6.648468 9.2144165 -11.7039795c2.4990845 -5.0746155 3.7487183 -10.559357 3.7487183 -16.454285c0 -7.3257446 -2.0508423 -13.678528 -6.152527 -19.05838c-4.0825806 -5.379822 -9.929749 -9.1857605 -17.541687 -11.417816c5.8949585 -2.9188538 10.301819 -6.753418 13.220703 -11.503693c2.9188232 -4.7502747 4.378235 -9.815338 4.378235 -15.19519c0 -5.7804565 -1.6502075 -11.312897 -4.9505615 -16.597351c-3.281372 -5.303528 -7.831299 -9.223938 -13.649902 -11.76123c-5.7995605 -2.5563965 -13.506836 -3.8345642 -23.121887 -3.8345642z" fill-rule="evenodd"/><path stroke="#e69138" stroke-width="3.0" stroke-linejoin="round" stroke-linecap="butt" d="m972.96375 327.62485c1.9459229 6.8106384 4.921997 15.509949 8.928284 26.09793l13.134766 34.85446l-42.666626 0l13.821594 -36.914825c2.9188232 -7.9552917 5.1795044 -15.967804 6.7819824 -24.037567zm-8.584839 -13.220642l-48.33264 125.85379l17.684753 0l13.821594 -38.1167l52.625122 0l14.680054 38.1167l18.972534 0l-51.509094 -125.85379z" fill-rule="evenodd"/><path stroke="#e69138" stroke-width="3.0" stroke-linejoin="round" stroke-linecap="butt" d="m1090.2328 329.25598c9.901123 0 17.08374 0.85849 21.547852 2.5754395c6.1811523 2.403778 11.42749 7.1445007 15.738892 14.222229c4.3306885 7.058655 6.4958496 17.169678 6.4958496 30.33313c0 9.500549 -1.1064453 17.589386 -3.319458 24.26648c-2.1938477 6.65802 -5.265381 11.961548 -9.214355 15.9105835c-2.8044434 2.8043823 -6.5721436 4.979187 -11.303345 6.524475c-4.712158 1.5452576 -11.217529 2.3179016 -19.516235 2.3179016l-26.870605 0l0 -96.15024zm-43.095947 -14.851776l0 125.85379l45.41382 0c7.6118164 0 14.346191 -0.71539307 20.203003 -2.1462097c5.8758545 -1.4308167 10.883667 -3.5293274 15.0234375 -6.295532c4.1589355 -2.7853088 7.9838867 -6.591278 11.475098 -11.417847c3.491211 -4.8456726 6.352783 -10.959991 8.584839 -18.342957c2.2320557 -7.382965 3.3480225 -15.8533325 3.3480225 -25.411133c0 -11.217529 -1.6501465 -21.185486 -4.9505615 -29.90387c-3.28125 -8.737457 -8.241455 -15.9105835 -14.880371 -21.519348c-5.093628 -4.34964 -11.246094 -7.3543396 -18.457397 -9.014099c-5.150879 -1.2018738 -12.619751 -1.8027954 -22.406494 -1.8027954z" fill-rule="evenodd"/></g></svg>
